<svg xmlns="http://www.w3.org/2000/svg" width="31" height="33" viewBox="0 0 31 33" fill="none">
<path d="M24.7422 1C26.4752 1 27.9513 1.57034 29.1708 2.71102C30.3903 3.91508 31 5.34094 31 6.98859C31 7.74905 30.9037 8.5095 30.7112 9.26996C30.4545 10.0938 30.0052 11.1711 29.3634 12.5019L22.913 26H17.1366L20.9876 11.7414C19.3188 10.474 18.4845 8.88973 18.4845 6.98859C18.4845 5.34094 19.1263 3.91508 20.4099 2.71102C21.6294 1.57034 23.0735 1 24.7422 1ZM7.60559 1C9.33851 1 10.8147 1.57034 12.0342 2.71102C13.2536 3.91508 13.8634 5.34094 13.8634 6.98859C13.8634 7.74905 13.7671 8.5095 13.5745 9.26996C13.3178 10.0938 12.8685 11.1711 12.2267 12.5019L5.7764 26H0L3.85093 11.7414C2.18219 10.474 1.34783 8.88973 1.34783 6.98859C1.34783 5.34094 1.98965 3.91508 3.27329 2.71102C4.49275 1.57034 5.93686 1 7.60559 1Z" fill="#329D57"/>
</svg>