<svg  xmlns="http://www.w3.org/2000/svg" xmlns:xlink="http://www.w3.org/1999/xlink" viewBox="0 0 300 300">
    <style>:root>svg{display:none}:root>svg:target{display:block}</style>
    <svg id="chevron-drop" xmlns="http://www.w3.org/2000/svg" viewBox="0 0 15 9" fill="none">
      <path d="M1.5 0.999999L7.5 7L13.5 1" stroke-width="2" stroke-linecap="round"/>
    </svg>
    <svg id="arrow-l" xmlns="http://www.w3.org/2000/svg" viewBox="0 0 63 16">
      <path d="M1.5 7C0.947715 7 0.5 7.44772 0.5 8C0.5 8.55228 0.947715 9 1.5 9V7ZM62.2071 8.70711C62.5976 8.31658 62.5976 7.68342 62.2071 7.29289L55.8431 0.928932C55.4526 0.538408 54.8195 0.538408 54.4289 0.928932C54.0384 1.31946 54.0384 1.95262 54.4289 2.34315L60.0858 8L54.4289 13.6569C54.0384 14.0474 54.0384 14.6805 54.4289 15.0711C54.8195 15.4616 55.4526 15.4616 55.8431 15.0711L62.2071 8.70711ZM1.5 9H61.5V7H1.5V9Z" />
    </svg>
    <svg id="arrow-sm" xmlns="http://www.w3.org/2000/svg" viewBox="0 0 22 16">
      <path d="M1 7C0.447715 7 0 7.44772 0 8C0 8.55228 0.447715 9 1 9V7ZM21.7071 8.70711C22.0976 8.31658 22.0976 7.68342 21.7071 7.29289L15.3431 0.928932C14.9526 0.538408 14.3195 0.538408 13.9289 0.928932C13.5384 1.31946 13.5384 1.95262 13.9289 2.34315L19.5858 8L13.9289 13.6569C13.5384 14.0474 13.5384 14.6805 13.9289 15.0711C14.3195 15.4616 14.9526 15.4616 15.3431 15.0711L21.7071 8.70711ZM1 9H21V7H1V9Z"/>
    </svg>
    <svg id="heart" xmlns="http://www.w3.org/2000/svg" viewBox="0 0 25 24" fill="none">
      <path d="M12.6837 21C-4.32312 10.1322 6.30611 -2.35777 12.6837 5.42803C19.0613 -2.35772 29.6905 10.1322 12.6837 21Z" stroke-width="2"/>
    </svg>
    <svg id="icon-close" xmlns="http://www.w3.org/2000/svg" width="30" height="30" viewBox="0 0 30 30" fill="none">
      <path d="M1.875 28.125L28.3915 1.6085" stroke-width="2" stroke-linecap="round"/>
      <path d="M1.875 1.875L28.3915 28.3915" stroke-width="2" stroke-linecap="round"/>
    </svg>
    <svg id="skype" xmlns="http://www.w3.org/2000/svg" viewBox="0 0 40 40" fill="none">
      <path d="M19.9711 32.0382C13.3264 32.0382 10.2905 28.6533 10.2905 26.1706C10.2896 25.5783 10.5327 25.0118 10.9626 24.6044C11.3924 24.1969 11.9711 23.9845 12.5625 24.0171C15.4074 24.0171 14.6632 28.2845 19.9711 28.2845C22.6843 28.2845 24.278 26.6513 24.278 25.1169C24.278 24.1949 23.7511 23.1413 21.9599 22.7198L16.033 21.2249C11.2717 20.0132 10.442 17.3658 10.442 14.9095C10.442 9.81233 15.1045 7.96841 19.543 7.96841C23.6326 7.96841 28.4927 10.2272 28.4927 13.2829C28.4927 14.5999 27.3929 15.3046 26.1153 15.3046C23.6853 15.3046 24.0936 11.8933 19.2072 11.8933C16.7772 11.8933 15.4996 13.0326 15.4996 14.6263C15.4996 16.22 17.3896 16.76 19.0491 17.1222L23.4219 18.11C28.2161 19.19 29.4936 22.002 29.4936 24.6954C29.4936 28.8377 26.2865 32.0382 19.9645 32.0382H19.9711ZM38.3181 23.273C38.508 22.1857 38.6027 21.084 38.6013 19.9802C38.6245 14.436 36.1885 9.16687 31.9498 5.59308C27.7111 2.01929 22.106 0.508725 16.6455 1.46858C14.9671 0.502254 13.0635 -0.00430082 11.1269 2.75068e-05C7.15162 0.0243113 3.48741 2.15483 1.4998 5.59758C-0.487806 9.04032 -0.500664 13.2789 1.46602 16.7336C0.368625 22.7635 2.29093 28.9487 6.61289 33.2943C10.9348 37.6399 17.1095 39.5959 23.1453 38.5314C24.8216 39.4969 26.7228 40.0035 28.6573 40C32.6305 39.9744 36.2925 37.8448 38.2797 34.4041C40.2668 30.9634 40.2815 26.7273 38.3181 23.273Z" fill="#0078D7"/>
    </svg>
    <svg id="telegram" xmlns="http://www.w3.org/2000/svg" width="40" height="40" viewBox="0 0 40 40" fill="none">
      <path d="M20 40C31.0457 40 40 31.0457 40 20C40 8.95431 31.0457 0 20 0C8.95431 0 0 8.95431 0 20C0 31.0457 8.95431 40 20 40Z" fill="#28a8e9"/>
      <path fill-rule="evenodd" clip-rule="evenodd" d="M9.05368 19.7889C14.8841 17.2487 18.7719 15.574 20.7172 14.7649C26.2715 12.4547 27.4256 12.0534 28.1778 12.0402C28.3433 12.0373 28.7132 12.0783 28.9528 12.2727C29.1551 12.4369 29.2108 12.6587 29.2375 12.8143C29.2641 12.97 29.2973 13.3246 29.2709 13.6017C28.9699 16.7641 27.6676 24.4386 27.005 27.9806C26.7246 29.4794 26.1726 29.9819 25.6382 30.0311C24.4767 30.138 23.5948 29.2635 22.4699 28.5261C20.7096 27.3723 19.7152 26.654 18.0066 25.528C16.0319 24.2268 17.312 23.5116 18.4373 22.3428C18.7318 22.0369 23.8492 17.3823 23.9482 16.96C23.9606 16.9072 23.9721 16.7104 23.8551 16.6064C23.7382 16.5025 23.5656 16.5381 23.441 16.5663C23.2645 16.6064 20.4525 18.465 15.0049 22.1423C14.2067 22.6904 13.4838 22.9574 12.836 22.9434C12.1219 22.928 10.7483 22.5397 9.72709 22.2077C8.47459 21.8006 7.47913 21.5853 7.56581 20.8939C7.61096 20.5337 8.10692 20.1654 9.05368 19.7889Z" fill="white"/>
    </svg>
    <svg id="vk" xmlns="http://www.w3.org/2000/svg" viewBox="0 0 40 40" fill="none">
      <g clip-path="url(#clip0_433_2561)">
        <path d="M0 19.2C0 10.149 0 5.62355 2.81177 2.81177C5.62355 0 10.149 0 19.2 0H20.8C29.851 0 34.3764 0 37.1882 2.81177C40 5.62355 40 10.149 40 19.2V20.8C40 29.851 40 34.3764 37.1882 37.1882C34.3764 40 29.851 40 20.8 40H19.2C10.149 40 5.62355 40 2.81177 37.1882C0 34.3764 0 29.851 0 20.8V19.2Z" fill="#0077FF"/>
        <path d="M21.2833 28.817C12.1666 28.817 6.96667 22.567 6.75 12.167H11.3167C11.4667 19.8003 14.8333 23.0337 17.4999 23.7003V12.167H21.8001V18.7503C24.4334 18.467 27.1997 15.467 28.1331 12.167H32.4332C31.7165 16.2337 28.7165 19.2337 26.5832 20.467C28.7165 21.467 32.1333 24.0837 33.4333 28.817H28.6998C27.6832 25.6503 25.1501 23.2003 21.8001 22.867V28.817H21.2833Z" fill="white"/>
      </g>
      <defs>
        <clipPath id="clip0_433_2561">
          <rect width="40" height="40" fill="white"/>
        </clipPath>
      </defs>
    </svg>
     <svg id="omni" xmlns="http://www.w3.org/2000/svg" viewBox="0 0 59 19">
        <g clip-path="url(#clip0_854_19967)">
            <path fill-rule="evenodd" clip-rule="evenodd"
                d="M9.0005 3.71741H10.46V5.20446H9.0005V3.71741ZM9.0005 6.52723V8.01322H7.54206V10.9873H9.0005V12.3093V13.7962H10.46V12.3093H17.5959V13.7958H14.8392V15.2829H17.5959V13.7962H19.0555V10.9873H20.5139V8.01322H19.0555H19.0548V6.52723H17.597V5.20501H16.1375V6.52723H11.9184V5.20501H10.4589V6.52723H9.0005ZM17.5959 9.49919V8.0143H16.1353V9.49919H17.5959ZM11.9189 8.0143V9.49919H10.46V8.0143H11.9189ZM7.54152 9.49919H6.08203V13.7952H7.54152V9.49919ZM13.2175 15.2829V13.7958H10.4607V15.2829H13.2175ZM19.0555 3.71741H17.5959V5.20446H19.0555V3.71741ZM21.9755 9.49919H20.516V13.7952H21.9755V9.49919Z" />
        </g>
        <path
            d="M33.1188 9.49996C33.1188 10.3237 32.9728 11.0356 32.6808 11.6356C32.3889 12.2356 31.9884 12.6983 31.4794 13.0237C30.9703 13.3492 30.3889 13.5119 29.7352 13.5119C29.0814 13.5119 28.5 13.3492 27.991 13.0237C27.4819 12.6983 27.0814 12.2356 26.7895 11.6356C26.4975 11.0356 26.3516 10.3237 26.3516 9.49996C26.3516 8.67622 26.4975 7.96434 26.7895 7.36433C27.0814 6.76433 27.4819 6.30161 27.991 5.97618C28.5 5.65075 29.0814 5.48804 29.7352 5.48804C30.3889 5.48804 30.9703 5.65075 31.4794 5.97618C31.9884 6.30161 32.3889 6.76433 32.6808 7.36433C32.9728 7.96434 33.1188 8.67622 33.1188 9.49996ZM32.2205 9.49996C32.2205 8.82368 32.1094 8.25291 31.8873 7.78765C31.6677 7.32238 31.3696 6.97026 30.9928 6.73127C30.6185 6.49229 30.1993 6.3728 29.7352 6.3728C29.271 6.3728 28.8506 6.49229 28.4738 6.73127C28.0995 6.97026 27.8013 7.32238 27.5792 7.78765C27.3597 8.25291 27.2499 8.82368 27.2499 9.49996C27.2499 10.1762 27.3597 10.747 27.5792 11.2123C27.8013 11.6775 28.0995 12.0297 28.4738 12.2686C28.8506 12.5076 29.271 12.6271 29.7352 12.6271C30.1993 12.6271 30.6185 12.5076 30.9928 12.2686C31.3696 12.0297 31.6677 11.6775 31.8873 11.2123C32.1094 10.747 32.2205 10.1762 32.2205 9.49996Z" />
        <path
            d="M34.6795 5.59482H35.7875L38.3925 12.078H38.4823L41.0874 5.59482H42.1953V13.4051H41.327V7.47112H41.2521L38.8566 13.4051H38.0182L35.6228 7.47112H35.5479V13.4051H34.6795V5.59482Z" />
        <path
            d="M50.135 5.59482V13.4051H49.2367L45.0596 7.27281H44.9847V13.4051H44.0565V5.59482H44.9548L49.1469 11.7424H49.2217V5.59482H50.135Z" />
        <path d="M52.9206 5.59482V13.4051H51.9924V5.59482H52.9206Z" />
        <defs>
            <clipPath id="clip0_854_19967">
                <rect width="16.2155" height="11.5652" fill="white"
                    transform="translate(6.08203 3.71741)" />
            </clipPath>
        </defs>
    </svg>
</svg>