<svg xmlns="http://www.w3.org/2000/svg" width="262" height="262" viewBox="0 0 262 262" fill="none">
<g clip-path="url(#clip0_649_4037)">
<path d="M63.4439 63.1678C63.4439 63.2411 63.4149 63.3113 63.3631 63.3631C63.3113 63.4149 63.2411 63.4439 63.1678 63.4439H0.276099C0.202873 63.4439 0.132647 63.4149 0.0808681 63.3631C0.0290896 63.3113 0 63.2411 0 63.1678V0.276099C0 0.202873 0.0290896 0.132647 0.0808681 0.0808681C0.132647 0.0290896 0.202873 0 0.276099 0H63.1678C63.2411 0 63.3113 0.0290896 63.3631 0.0808681C63.4149 0.132647 63.4439 0.202873 63.4439 0.276099V63.1678ZM54.0448 9.65758C54.0448 9.58903 54.0176 9.52328 53.9691 9.47481C53.9207 9.42633 53.8549 9.3991 53.7864 9.3991H9.65758C9.58903 9.3991 9.52328 9.42633 9.47481 9.47481C9.42634 9.52328 9.3991 9.58903 9.3991 9.65758V53.7864C9.3991 53.8549 9.42634 53.9207 9.47481 53.9691C9.52328 54.0176 9.58903 54.0448 9.65758 54.0448H53.7864C53.8549 54.0448 53.9207 54.0176 53.9691 53.9691C54.0176 53.9207 54.0448 53.8549 54.0448 53.7864V9.65758Z" fill="#3F8D9A"/>
<path d="M126.3 208.278L126.306 225.843C126.306 225.929 126.272 226.011 126.212 226.071C126.151 226.132 126.069 226.166 125.983 226.166H81.3962C81.3105 226.166 81.2284 226.132 81.1678 226.071C81.1072 226.011 81.0731 225.929 81.0731 225.843L81.0614 217.096C81.0614 217.01 81.0273 216.928 80.9668 216.867C80.9062 216.807 80.824 216.773 80.7383 216.773L71.9913 216.761C71.9056 216.761 71.8234 216.727 71.7628 216.666C71.7022 216.606 71.6682 216.524 71.6682 216.438V181.262C71.6682 181.176 71.6341 181.094 71.5735 181.033C71.5129 180.973 71.4308 180.939 71.3451 180.939L63.767 180.933C63.6814 180.933 63.5992 180.967 63.5386 181.027C63.478 181.088 63.4439 181.17 63.4439 181.256V189.433C63.4439 189.519 63.4099 189.601 63.3493 189.662C63.2887 189.722 63.2065 189.756 63.1208 189.756L54.3738 189.739C54.2881 189.739 54.2059 189.704 54.1454 189.644C54.0848 189.583 54.0507 189.501 54.0507 189.415L54.039 181.262C54.039 181.176 54.0049 181.094 53.9443 181.033C53.8837 180.973 53.8016 180.939 53.7159 180.939L45.5563 180.927C45.5139 180.927 45.4718 180.935 45.4326 180.951C45.3934 180.968 45.3578 180.991 45.3278 181.021C45.2978 181.051 45.274 181.087 45.2578 181.126C45.2415 181.166 45.2332 181.208 45.2332 181.25V189.421C45.2332 189.507 45.1991 189.589 45.1386 189.65C45.078 189.71 44.9958 189.744 44.9101 189.744H27.3514C27.2657 189.744 27.1835 189.71 27.1229 189.65C27.0623 189.589 27.0283 189.507 27.0283 189.421L27.0165 172.45C27.0165 172.364 26.9825 172.282 26.9219 172.222C26.8613 172.161 26.7791 172.127 26.6935 172.127L9.71045 172.115C9.62476 172.115 9.54258 172.149 9.48199 172.21C9.42139 172.27 9.38736 172.353 9.38736 172.438L9.3991 189.421C9.3991 189.507 9.36506 189.589 9.30447 189.65C9.24388 189.71 9.1617 189.744 9.07601 189.744L0.323094 189.762C0.237404 189.762 0.155224 189.728 0.0946318 189.667C0.0340399 189.607 0 189.525 0 189.439V153.634C0 153.549 0.0340399 153.466 0.0946318 153.406C0.155224 153.345 0.237404 153.311 0.323094 153.311L17.3002 153.329C17.3427 153.329 17.3847 153.32 17.4239 153.304C17.4631 153.288 17.4987 153.264 17.5287 153.234C17.5587 153.204 17.5825 153.168 17.5987 153.129C17.615 153.09 17.6233 153.048 17.6233 153.006L17.6174 145.439C17.6174 145.354 17.5834 145.272 17.5228 145.211C17.4622 145.15 17.38 145.116 17.2944 145.116L9.13476 145.099C9.04907 145.099 8.96689 145.065 8.90629 145.004C8.8457 144.943 8.81166 144.861 8.81166 144.776V136.011C8.81166 135.925 8.77762 135.843 8.71702 135.782C8.65643 135.722 8.57425 135.688 8.48856 135.688L0.323094 135.723C0.237404 135.723 0.155224 135.689 0.0946318 135.628C0.0340399 135.568 0 135.486 0 135.4V126.618C0 126.532 0.0340399 126.45 0.0946318 126.389C0.155224 126.329 0.237404 126.295 0.323094 126.295L17.3061 126.306C17.3918 126.306 17.474 126.272 17.5346 126.212C17.5952 126.151 17.6292 126.069 17.6292 125.983L17.6174 117.812C17.6174 117.726 17.5834 117.644 17.5228 117.583C17.4622 117.523 17.38 117.489 17.2944 117.489L9.13476 117.495C9.04907 117.495 8.96689 117.461 8.90629 117.4C8.8457 117.339 8.81166 117.257 8.81166 117.172V109.012C8.81166 108.926 8.77762 108.844 8.71702 108.784C8.65643 108.723 8.57425 108.689 8.48856 108.689L0.323094 108.671C0.237404 108.671 0.155224 108.637 0.0946318 108.577C0.0340399 108.516 0 108.434 0 108.348V72.5787C0 72.493 0.0340399 72.4108 0.0946318 72.3502C0.155224 72.2896 0.237404 72.2556 0.323094 72.2556H17.8877C17.9734 72.2556 18.0555 72.2896 18.1161 72.3502C18.1767 72.4108 18.2108 72.493 18.2108 72.5787V81.3316C18.2108 81.4173 18.1767 81.4995 18.1161 81.5601C18.0555 81.6207 17.9734 81.6547 17.8877 81.6547L9.71045 81.6606C9.66802 81.6606 9.62601 81.6689 9.58681 81.6852C9.54761 81.7014 9.51199 81.7252 9.48199 81.7552C9.45198 81.7852 9.42819 81.8208 9.41195 81.86C9.39571 81.8992 9.38736 81.9412 9.38736 81.9837L9.40498 107.767C9.40498 107.852 9.43902 107.934 9.49961 107.995C9.5602 108.056 9.64238 108.09 9.72807 108.09L17.3061 108.096C17.3918 108.096 17.474 108.062 17.5346 108.001C17.5952 107.94 17.6292 107.858 17.6292 107.772L17.6233 99.5952C17.6233 99.5096 17.6574 99.4274 17.718 99.3668C17.7785 99.3062 17.8607 99.2722 17.9464 99.2722L27.2868 99.278C27.3725 99.278 27.4546 99.3121 27.5152 99.3727C27.5758 99.4333 27.6099 99.5154 27.6099 99.6011V107.761C27.6099 107.846 27.6439 107.929 27.7045 107.989C27.7651 108.05 27.8473 108.084 27.933 108.084L35.511 108.09C35.5967 108.09 35.6789 108.056 35.7394 107.995C35.8 107.934 35.8341 107.852 35.8341 107.767V81.3904C35.8341 81.3047 35.8681 81.2225 35.9287 81.1619C35.9893 81.1013 36.0715 81.0673 36.1572 81.0673H44.3285C44.4142 81.0673 44.4964 81.0332 44.557 80.9726C44.6176 80.912 44.6516 80.8299 44.6516 80.7442L44.634 72.5787C44.634 72.5363 44.6423 72.4943 44.6586 72.4551C44.6748 72.4159 44.6986 72.3802 44.7286 72.3502C44.7586 72.3202 44.7942 72.2964 44.8334 72.2802C44.8726 72.264 44.9147 72.2556 44.9571 72.2556H71.9325C72.0182 72.2556 72.1004 72.2896 72.161 72.3502C72.2216 72.4108 72.2556 72.493 72.2556 72.5787L72.2791 80.7324C72.2791 80.8181 72.3131 80.9003 72.3737 80.9609C72.4343 81.0215 72.5165 81.0555 72.6022 81.0555L80.7442 81.0673C80.8299 81.0673 80.912 81.0332 80.9726 80.9726C81.0332 80.912 81.0673 80.8299 81.0673 80.7442V63.7729C81.0673 63.6872 81.0332 63.605 80.9726 63.5445C80.912 63.4839 80.8299 63.4498 80.7442 63.4498L71.9971 63.4439C71.9114 63.4439 71.8293 63.4099 71.7687 63.3493C71.7081 63.2887 71.674 63.2065 71.674 63.1208L71.6682 54.3679C71.6682 54.3255 71.6765 54.2835 71.6928 54.2443C71.709 54.2051 71.7328 54.1695 71.7628 54.1395C71.7928 54.1095 71.8284 54.0857 71.8676 54.0694C71.9068 54.0532 71.9488 54.0448 71.9913 54.0448H80.75C80.8357 54.0448 80.9179 54.0108 80.9785 53.9502C81.0391 53.8896 81.0731 53.8074 81.0731 53.7217L81.0614 46.1555C81.0614 46.0698 81.0273 45.9876 80.9668 45.927C80.9062 45.8664 80.824 45.8324 80.7383 45.8324L71.9913 45.8206C71.9056 45.8206 71.8234 45.7866 71.7628 45.726C71.7022 45.6654 71.6682 45.5832 71.6682 45.4975V27.3455C71.6682 27.2598 71.7022 27.1776 71.7628 27.1171C71.8234 27.0565 71.9056 27.0224 71.9913 27.0224L80.7442 27.0165C80.8299 27.0165 80.912 26.9825 80.9726 26.9219C81.0332 26.8613 81.0673 26.7791 81.0673 26.6935V18.528C81.0673 18.4856 81.0756 18.4435 81.0919 18.4043C81.1081 18.3651 81.1319 18.3295 81.1619 18.2995C81.1919 18.2695 81.2275 18.2457 81.2667 18.2295C81.3059 18.2132 81.3479 18.2049 81.3904 18.2049L98.3734 18.2166C98.4158 18.2166 98.4578 18.2083 98.497 18.192C98.5362 18.1758 98.5718 18.152 98.6018 18.122C98.6318 18.092 98.6556 18.0564 98.6719 18.0172C98.6881 17.978 98.6965 17.936 98.6965 17.8935L98.6906 9.72807C98.6906 9.68564 98.6822 9.64363 98.666 9.60443C98.6497 9.56523 98.626 9.52961 98.596 9.49961C98.5659 9.46961 98.5303 9.44581 98.4911 9.42957C98.4519 9.41333 98.4099 9.40498 98.3675 9.40498L81.3845 9.3991C81.2988 9.3991 81.2166 9.36506 81.156 9.30447C81.0954 9.24388 81.0614 9.1617 81.0614 9.07601L81.0555 0.323094C81.0555 0.237404 81.0896 0.155224 81.1502 0.0946318C81.2107 0.0340399 81.2929 0 81.3786 0H108.354C108.44 0 108.522 0.0340399 108.583 0.0946318C108.643 0.155224 108.677 0.237404 108.677 0.323094V8.48857C108.677 8.57425 108.711 8.65644 108.772 8.71703C108.832 8.77762 108.915 8.81166 109 8.81166H116.572C116.658 8.81166 116.74 8.77762 116.801 8.71703C116.861 8.65644 116.895 8.57425 116.895 8.48857L116.901 0.323094C116.901 0.237404 116.935 0.155224 116.996 0.0946318C117.057 0.0340399 117.139 0 117.224 0L144.188 0.00587345C144.231 0.00587345 144.273 0.0142306 144.312 0.0304676C144.351 0.0467046 144.387 0.0705055 144.417 0.100508C144.447 0.13051 144.47 0.166127 144.487 0.205327C144.503 0.244526 144.511 0.28654 144.511 0.328969V17.8877C144.511 17.9734 144.545 18.0555 144.606 18.1161C144.666 18.1767 144.749 18.2108 144.834 18.2108H153C153.085 18.2108 153.168 18.2448 153.228 18.3054C153.289 18.366 153.323 18.4482 153.323 18.5339V26.6993C153.323 26.7418 153.331 26.7838 153.347 26.823C153.364 26.8622 153.388 26.8978 153.418 26.9278C153.448 26.9578 153.483 26.9816 153.522 26.9978C153.562 27.0141 153.604 27.0224 153.646 27.0224H162.399C162.485 27.0224 162.567 27.0565 162.627 27.1171C162.688 27.1776 162.722 27.2598 162.722 27.3455L162.734 35.511C162.734 35.5967 162.768 35.6789 162.828 35.7394C162.889 35.8 162.971 35.8341 163.057 35.8341H189.427C189.513 35.8341 189.595 35.8681 189.656 35.9287C189.716 35.9893 189.75 36.0715 189.75 36.1572L189.744 81.3316C189.744 81.4173 189.71 81.4995 189.65 81.5601C189.589 81.6207 189.507 81.6547 189.421 81.6547H181.25C181.208 81.6547 181.166 81.6631 181.126 81.6793C181.087 81.6955 181.051 81.7193 181.021 81.7493C180.991 81.7793 180.968 81.815 180.951 81.8542C180.935 81.8934 180.927 81.9354 180.927 81.9778L180.933 89.5558C180.933 89.5983 180.941 89.6403 180.957 89.6795C180.974 89.7187 180.997 89.7543 181.027 89.7843C181.057 89.8143 181.093 89.8381 181.132 89.8543C181.171 89.8706 181.213 89.8789 181.256 89.8789L207.045 89.8731C207.087 89.8731 207.129 89.8647 207.168 89.8485C207.207 89.8322 207.243 89.8084 207.273 89.7784C207.303 89.7484 207.327 89.7128 207.343 89.6736C207.359 89.6344 207.368 89.5924 207.368 89.55V81.3962C207.368 81.3105 207.402 81.2284 207.462 81.1678C207.523 81.1072 207.605 81.0731 207.691 81.0731L215.856 81.0614C215.942 81.0614 216.024 81.0273 216.085 80.9668C216.145 80.9062 216.179 80.824 216.179 80.7383V72.5787C216.179 72.493 216.213 72.4108 216.274 72.3502C216.335 72.2896 216.417 72.2556 216.502 72.2556H234.654C234.74 72.2556 234.822 72.2896 234.883 72.3502C234.944 72.4108 234.978 72.493 234.978 72.5787L234.983 80.7442C234.983 80.8299 235.017 80.912 235.078 80.9726C235.139 81.0332 235.221 81.0673 235.307 81.0673H252.284C252.369 81.0673 252.452 81.1013 252.512 81.1619C252.573 81.2225 252.607 81.3047 252.607 81.3904L252.619 90.1433C252.619 90.229 252.584 90.3111 252.524 90.3717C252.463 90.4323 252.381 90.4664 252.295 90.4664H234.713C234.628 90.4664 234.545 90.4323 234.485 90.3717C234.424 90.3111 234.39 90.229 234.39 90.1433V81.9778C234.39 81.9354 234.382 81.8934 234.366 81.8542C234.349 81.815 234.326 81.7793 234.296 81.7493C234.265 81.7193 234.23 81.6955 234.191 81.6793C234.151 81.6631 234.109 81.6547 234.067 81.6547H225.896C225.853 81.6547 225.811 81.6631 225.772 81.6793C225.733 81.6955 225.697 81.7193 225.667 81.7493C225.637 81.7793 225.613 81.815 225.597 81.8542C225.581 81.8934 225.573 81.9354 225.573 81.9778V98.9549C225.573 99.0406 225.607 99.1228 225.667 99.1834C225.728 99.244 225.81 99.278 225.896 99.278L234.649 99.2722C234.734 99.2722 234.816 99.3062 234.877 99.3668C234.938 99.4274 234.972 99.5096 234.972 99.5952L234.989 108.354C234.989 108.44 234.955 108.522 234.895 108.583C234.834 108.643 234.752 108.677 234.666 108.677H208.278C208.236 108.677 208.194 108.685 208.155 108.702C208.115 108.718 208.08 108.742 208.05 108.772C208.02 108.802 207.996 108.837 207.98 108.877C207.964 108.916 207.955 108.958 207.955 109V116.572C207.955 116.615 207.964 116.657 207.98 116.696C207.996 116.735 208.02 116.771 208.05 116.801C208.08 116.831 208.115 116.855 208.155 116.871C208.194 116.887 208.236 116.895 208.278 116.895L225.255 116.901C225.341 116.901 225.423 116.935 225.484 116.996C225.544 117.057 225.578 117.139 225.578 117.224V125.977C225.578 126.063 225.613 126.145 225.673 126.206C225.734 126.266 225.816 126.3 225.902 126.3H242.879C242.964 126.3 243.047 126.266 243.107 126.206C243.168 126.145 243.202 126.063 243.202 125.977V117.219C243.202 117.133 243.236 117.051 243.296 116.99C243.357 116.93 243.439 116.895 243.525 116.895L251.69 116.907C251.776 116.907 251.858 116.873 251.919 116.813C251.979 116.752 252.013 116.67 252.013 116.584V108.413C252.013 108.327 252.048 108.245 252.108 108.184C252.169 108.124 252.251 108.09 252.337 108.09H261.671C261.757 108.09 261.839 108.124 261.9 108.184C261.96 108.245 261.994 108.327 261.994 108.413L262 126.565C262 126.65 261.966 126.733 261.905 126.793C261.845 126.854 261.763 126.888 261.677 126.888H244.112C244.07 126.888 244.028 126.896 243.989 126.912C243.949 126.929 243.914 126.953 243.884 126.983C243.854 127.013 243.83 127.048 243.814 127.087C243.798 127.127 243.789 127.169 243.789 127.211V153C243.789 153.042 243.798 153.084 243.814 153.123C243.83 153.163 243.854 153.198 243.884 153.228C243.914 153.258 243.949 153.282 243.989 153.298C244.028 153.315 244.07 153.323 244.112 153.323H261.677C261.763 153.323 261.845 153.357 261.905 153.418C261.966 153.478 262 153.56 262 153.646V171.798C262 171.884 261.966 171.966 261.905 172.026C261.845 172.087 261.763 172.121 261.677 172.121H252.337C252.251 172.121 252.169 172.087 252.108 172.026C252.048 171.966 252.013 171.884 252.013 171.798V163.045C252.013 163.003 252.005 162.961 251.989 162.921C251.973 162.882 251.949 162.847 251.919 162.817C251.889 162.787 251.853 162.763 251.814 162.747C251.775 162.73 251.733 162.722 251.69 162.722H235.301C235.258 162.722 235.216 162.73 235.177 162.747C235.138 162.763 235.102 162.787 235.072 162.817C235.042 162.847 235.018 162.882 235.002 162.921C234.986 162.961 234.978 163.003 234.978 163.045L234.983 171.798C234.983 171.884 234.949 171.966 234.889 172.026C234.828 172.087 234.746 172.121 234.66 172.121H217.078C216.992 172.121 216.91 172.155 216.85 172.216C216.789 172.276 216.755 172.358 216.755 172.444L216.773 180.016C216.773 180.102 216.807 180.184 216.867 180.245C216.928 180.305 217.01 180.339 217.096 180.339L225.255 180.351C225.341 180.351 225.423 180.385 225.484 180.446C225.544 180.506 225.578 180.589 225.578 180.674V188.834C225.578 188.92 225.613 189.002 225.673 189.062C225.734 189.123 225.816 189.157 225.902 189.157H234.067C234.109 189.157 234.151 189.149 234.191 189.132C234.23 189.116 234.265 189.092 234.296 189.062C234.326 189.032 234.349 188.997 234.366 188.957C234.382 188.918 234.39 188.876 234.39 188.834V180.668C234.39 180.583 234.424 180.501 234.485 180.44C234.545 180.379 234.628 180.345 234.713 180.345H261.677C261.763 180.345 261.845 180.379 261.905 180.44C261.966 180.501 262 180.583 262 180.668L262.006 189.415C262.006 189.501 261.972 189.583 261.911 189.644C261.851 189.704 261.768 189.739 261.683 189.739L235.307 189.744C235.221 189.744 235.139 189.778 235.078 189.839C235.017 189.9 234.983 189.982 234.983 190.067L234.978 198.233C234.978 198.275 234.986 198.317 235.002 198.357C235.018 198.396 235.042 198.431 235.072 198.461C235.102 198.491 235.138 198.515 235.177 198.531C235.216 198.548 235.258 198.556 235.301 198.556H243.46C243.546 198.556 243.628 198.59 243.689 198.651C243.749 198.711 243.783 198.793 243.783 198.879L243.819 207.039C243.819 207.124 243.853 207.207 243.913 207.267C243.974 207.328 244.056 207.362 244.142 207.362L261.677 207.368C261.763 207.368 261.845 207.402 261.905 207.462C261.966 207.523 262 207.605 262 207.691V234.66C262 234.746 261.966 234.828 261.905 234.889C261.845 234.949 261.763 234.983 261.677 234.983L252.924 234.966C252.882 234.966 252.84 234.974 252.8 234.99C252.761 235.007 252.726 235.03 252.696 235.06C252.666 235.09 252.642 235.126 252.625 235.165C252.609 235.204 252.601 235.246 252.601 235.289V242.873C252.601 242.915 252.609 242.957 252.625 242.996C252.642 243.036 252.666 243.071 252.696 243.101C252.726 243.131 252.761 243.155 252.8 243.171C252.84 243.188 252.882 243.196 252.924 243.196L261.683 243.202C261.768 243.202 261.851 243.236 261.911 243.296C261.972 243.357 262.006 243.439 262.006 243.525V252.871C262.006 252.957 261.972 253.039 261.911 253.1C261.851 253.16 261.768 253.194 261.683 253.194L252.342 253.182C252.257 253.182 252.175 253.148 252.114 253.088C252.053 253.027 252.019 252.945 252.019 252.859L252.008 244.118C252.008 244.033 251.974 243.95 251.913 243.89C251.852 243.829 251.77 243.795 251.684 243.795L244.112 243.789C244.027 243.789 243.944 243.823 243.884 243.884C243.823 243.944 243.789 244.027 243.789 244.112V261.677C243.789 261.763 243.755 261.845 243.695 261.905C243.634 261.966 243.552 262 243.466 262H216.491C216.405 262 216.323 261.966 216.262 261.905C216.202 261.845 216.168 261.763 216.168 261.677L216.185 244.106C216.185 244.021 216.151 243.939 216.091 243.878C216.03 243.817 215.948 243.783 215.862 243.783L198.879 243.789C198.837 243.789 198.795 243.798 198.756 243.814C198.716 243.83 198.681 243.854 198.651 243.884C198.621 243.914 198.597 243.949 198.581 243.989C198.564 244.028 198.556 244.07 198.556 244.112V252.266C198.556 252.308 198.564 252.35 198.581 252.39C198.597 252.429 198.621 252.465 198.651 252.495C198.681 252.525 198.716 252.548 198.756 252.565C198.795 252.581 198.837 252.589 198.879 252.589L207.638 252.607C207.724 252.607 207.806 252.641 207.866 252.701C207.927 252.762 207.961 252.844 207.961 252.93L207.973 261.677C207.973 261.763 207.939 261.845 207.878 261.905C207.818 261.966 207.735 262 207.65 262H189.48C189.394 262 189.312 261.966 189.252 261.905C189.191 261.845 189.157 261.763 189.157 261.677L189.151 235.307C189.151 235.264 189.143 235.222 189.126 235.183C189.11 235.144 189.086 235.108 189.056 235.078C189.026 235.048 188.991 235.024 188.952 235.008C188.912 234.992 188.87 234.983 188.828 234.983H180.668C180.583 234.983 180.501 234.949 180.44 234.889C180.379 234.828 180.345 234.746 180.345 234.66L180.351 226.489C180.351 226.403 180.317 226.321 180.257 226.261C180.196 226.2 180.114 226.166 180.028 226.166H162.452C162.366 226.166 162.284 226.132 162.223 226.071C162.163 226.011 162.129 225.929 162.129 225.843L162.135 198.879C162.135 198.793 162.169 198.711 162.229 198.651C162.29 198.59 162.372 198.556 162.458 198.556H170.623C170.666 198.556 170.708 198.548 170.747 198.531C170.786 198.515 170.822 198.491 170.852 198.461C170.882 198.431 170.905 198.396 170.922 198.357C170.938 198.317 170.946 198.275 170.946 198.233V190.067C170.946 189.982 170.912 189.9 170.852 189.839C170.791 189.778 170.709 189.744 170.623 189.744H153.646C153.604 189.744 153.562 189.753 153.522 189.769C153.483 189.785 153.448 189.809 153.418 189.839C153.388 189.869 153.364 189.905 153.347 189.944C153.331 189.983 153.323 190.025 153.323 190.067L153.329 207.632C153.329 207.718 153.295 207.8 153.234 207.861C153.174 207.921 153.091 207.955 153.006 207.955H126.624C126.581 207.955 126.539 207.964 126.5 207.98C126.461 207.996 126.425 208.02 126.395 208.05C126.365 208.08 126.341 208.115 126.325 208.155C126.309 208.194 126.3 208.236 126.3 208.278ZM117.489 18.5104C117.489 18.5867 117.458 18.6599 117.404 18.7139C117.35 18.7679 117.277 18.7982 117.201 18.7982L108.965 18.7923C108.927 18.7923 108.89 18.7998 108.855 18.8142C108.82 18.8287 108.788 18.8499 108.761 18.8766C108.735 18.9034 108.714 18.9351 108.699 18.97C108.685 19.0049 108.677 19.0424 108.677 19.0802L108.683 35.5462C108.683 35.6226 108.713 35.6958 108.767 35.7498C108.821 35.8038 108.895 35.8341 108.971 35.8341H125.425C125.502 35.8341 125.575 35.8038 125.629 35.7498C125.683 35.6958 125.713 35.6226 125.713 35.5462V18.4927C125.713 18.4549 125.72 18.4175 125.735 18.3826C125.749 18.3477 125.771 18.3159 125.797 18.2892C125.824 18.2625 125.856 18.2413 125.891 18.2268C125.926 18.2123 125.963 18.2049 126.001 18.2049L134.824 18.2166C134.901 18.2166 134.974 18.1863 135.028 18.1323C135.082 18.0783 135.112 18.0051 135.112 17.9288V9.68695C135.112 9.61061 135.082 9.53739 135.028 9.48341C134.974 9.42943 134.901 9.3991 134.824 9.3991H117.777C117.7 9.3991 117.627 9.42943 117.573 9.48341C117.519 9.53739 117.489 9.61061 117.489 9.68695V18.5104ZM143.93 19.1343C143.93 19.0471 143.896 18.9634 143.834 18.9016C143.773 18.8398 143.689 18.805 143.602 18.8048L136.036 18.7916C135.948 18.7915 135.865 18.826 135.803 18.8876C135.741 18.9492 135.706 19.0328 135.706 19.12L135.693 26.6863C135.693 26.7735 135.727 26.8572 135.789 26.919C135.851 26.9808 135.934 27.0156 136.021 27.0158L143.588 27.029C143.675 27.0291 143.759 26.9946 143.82 26.933C143.882 26.8715 143.917 26.7879 143.917 26.7006L143.93 19.1343ZM89.8848 28.0328C89.8848 27.9207 89.8402 27.8131 89.7609 27.7337C89.6816 27.6544 89.574 27.6099 89.4618 27.6099H82.0835C81.9714 27.6099 81.8638 27.6544 81.7845 27.7337C81.7051 27.8131 81.6606 27.9207 81.6606 28.0328V44.8102C81.6606 44.9224 81.7051 45.03 81.7845 45.1093C81.8638 45.1886 81.9714 45.2332 82.0835 45.2332H89.4618C89.574 45.2332 89.6816 45.1886 89.7609 45.1093C89.8402 45.03 89.8848 44.9224 89.8848 44.8102V28.0328ZM44.916 144.511C45.0001 144.511 45.0808 144.545 45.1403 144.604C45.1998 144.664 45.2332 144.744 45.2332 144.828L45.2391 153.006C45.2391 153.047 45.2473 153.089 45.2632 153.127C45.2791 153.166 45.3025 153.201 45.332 153.23C45.3614 153.259 45.3964 153.283 45.4349 153.299C45.4734 153.315 45.5146 153.323 45.5563 153.323H53.7276C53.8118 153.323 53.8924 153.289 53.9519 153.23C54.0114 153.17 54.0448 153.09 54.0448 153.006L54.039 144.828C54.039 144.744 54.0724 144.664 54.1319 144.604C54.1914 144.545 54.2721 144.511 54.3562 144.511H63.1208C63.205 144.511 63.2857 144.545 63.3452 144.604C63.4046 144.664 63.4381 144.744 63.4381 144.828L63.4498 153.593C63.4498 153.635 63.4416 153.676 63.4257 153.714C63.4097 153.753 63.3864 153.788 63.3569 153.817C63.3275 153.847 63.2925 153.87 63.254 153.886C63.2155 153.902 63.1743 153.91 63.1326 153.91H54.9495C54.8654 153.91 54.7847 153.944 54.7252 154.003C54.6657 154.063 54.6323 154.143 54.6323 154.228V161.817C54.6323 161.901 54.6657 161.982 54.7252 162.042C54.7847 162.101 54.8654 162.135 54.9495 162.135H63.1326C63.1743 162.135 63.2155 162.143 63.254 162.159C63.2925 162.175 63.3275 162.198 63.3569 162.227C63.3864 162.257 63.4097 162.292 63.4257 162.33C63.4416 162.369 63.4498 162.41 63.4498 162.452V171.211C63.4498 171.252 63.458 171.293 63.474 171.332C63.4899 171.37 63.5133 171.405 63.5427 171.435C63.5722 171.464 63.6072 171.488 63.6456 171.504C63.6841 171.52 63.7254 171.528 63.767 171.528L71.9266 171.534C72.0108 171.534 72.0915 171.567 72.1509 171.627C72.2104 171.686 72.2439 171.767 72.2439 171.851L72.2732 180.01C72.2732 180.052 72.2814 180.093 72.2974 180.132C72.3133 180.17 72.3367 180.205 72.3661 180.235C72.3956 180.264 72.4306 180.288 72.4691 180.304C72.5075 180.319 72.5488 180.328 72.5905 180.328L81.3375 180.351C81.4216 180.351 81.5023 180.385 81.5618 180.444C81.6213 180.504 81.6547 180.584 81.6547 180.668L81.6665 188.851C81.6665 188.936 81.6999 189.016 81.7594 189.076C81.8189 189.135 81.8995 189.169 81.9837 189.169L89.5617 189.157C89.6034 189.157 89.6446 189.149 89.6831 189.133C89.7216 189.117 89.7566 189.093 89.786 189.064C89.8155 189.035 89.8388 189 89.8548 188.961C89.8707 188.923 89.8789 188.881 89.8789 188.84V172.456C89.8789 172.414 89.8707 172.373 89.8548 172.335C89.8388 172.296 89.8155 172.261 89.786 172.232C89.7566 172.202 89.7216 172.179 89.6831 172.163C89.6446 172.147 89.6034 172.139 89.5617 172.139L81.3904 172.121C81.3487 172.121 81.3074 172.113 81.269 172.097C81.2305 172.081 81.1955 172.058 81.1661 172.028C81.1366 171.999 81.1132 171.964 81.0973 171.925C81.0813 171.887 81.0731 171.846 81.0731 171.804L81.0555 163.045C81.0555 162.961 81.0221 162.88 80.9626 162.821C80.9031 162.761 80.8224 162.728 80.7383 162.728L71.9854 162.722C71.9012 162.722 71.8206 162.689 71.7611 162.629C71.7016 162.57 71.6682 162.489 71.6682 162.405V153.646C71.6682 153.562 71.7016 153.481 71.7611 153.422C71.8206 153.362 71.9012 153.329 71.9854 153.329L80.75 153.323C80.8342 153.323 80.9149 153.289 80.9744 153.23C81.0338 153.17 81.0673 153.09 81.0673 153.006V135.429C81.0673 135.345 81.1007 135.265 81.1602 135.205C81.2197 135.146 81.3003 135.112 81.3845 135.112H90.1492C90.2333 135.112 90.314 135.146 90.3735 135.205C90.433 135.265 90.4664 135.345 90.4664 135.429V171.216C90.4664 171.301 90.4998 171.381 90.5593 171.441C90.6188 171.5 90.6995 171.534 90.7836 171.534L107.767 171.528C107.851 171.528 107.931 171.494 107.991 171.435C108.05 171.375 108.084 171.295 108.084 171.211L108.09 162.452C108.09 162.41 108.098 162.369 108.114 162.33C108.13 162.292 108.153 162.257 108.183 162.227C108.212 162.198 108.247 162.175 108.286 162.159C108.324 162.143 108.365 162.135 108.407 162.135H134.795C134.879 162.135 134.96 162.101 135.019 162.042C135.079 161.982 135.112 161.901 135.112 161.817L135.118 154.228C135.118 154.143 135.085 154.063 135.025 154.003C134.966 153.944 134.885 153.91 134.801 153.91H126.03C125.989 153.91 125.947 153.902 125.909 153.886C125.87 153.87 125.835 153.847 125.806 153.817C125.776 153.788 125.753 153.753 125.737 153.714C125.721 153.676 125.713 153.635 125.713 153.593V145.422C125.713 145.38 125.705 145.339 125.689 145.3C125.673 145.262 125.65 145.227 125.62 145.197C125.591 145.168 125.556 145.145 125.517 145.129C125.479 145.113 125.437 145.105 125.396 145.105L117.806 145.093C117.722 145.093 117.641 145.126 117.582 145.186C117.522 145.245 117.489 145.326 117.489 145.41L117.495 153.593C117.495 153.635 117.486 153.676 117.471 153.714C117.455 153.753 117.431 153.788 117.402 153.817C117.372 153.847 117.337 153.87 117.299 153.886C117.26 153.902 117.219 153.91 117.177 153.91H108.407C108.365 153.91 108.324 153.902 108.286 153.886C108.247 153.87 108.212 153.847 108.183 153.817C108.153 153.788 108.13 153.753 108.114 153.714C108.098 153.676 108.09 153.635 108.09 153.593V135.429C108.09 135.345 108.123 135.265 108.183 135.205C108.242 135.146 108.323 135.112 108.407 135.112H116.578C116.62 135.112 116.661 135.104 116.7 135.088C116.738 135.072 116.773 135.049 116.803 135.019C116.832 134.99 116.855 134.955 116.871 134.916C116.887 134.878 116.895 134.837 116.895 134.795L116.907 127.205C116.907 127.163 116.899 127.122 116.883 127.084C116.867 127.045 116.844 127.01 116.814 126.981C116.785 126.951 116.75 126.928 116.711 126.912C116.673 126.896 116.632 126.888 116.59 126.888H108.407C108.323 126.888 108.242 126.854 108.183 126.795C108.123 126.735 108.09 126.655 108.09 126.571V117.213C108.09 117.129 108.123 117.048 108.183 116.988C108.242 116.929 108.323 116.895 108.407 116.895L116.584 116.907C116.626 116.907 116.667 116.899 116.706 116.883C116.744 116.867 116.779 116.844 116.808 116.814C116.838 116.785 116.861 116.75 116.877 116.711C116.893 116.673 116.901 116.632 116.901 116.59V108.401C116.901 108.317 116.935 108.236 116.994 108.177C117.054 108.117 117.134 108.084 117.219 108.084L125.396 108.096C125.48 108.096 125.561 108.062 125.62 108.003C125.68 107.943 125.713 107.862 125.713 107.778V99.5952C125.713 99.5111 125.746 99.4304 125.806 99.3709C125.865 99.3114 125.946 99.278 126.03 99.278H134.801C134.885 99.278 134.966 99.2446 135.025 99.1851C135.085 99.1256 135.118 99.0449 135.118 98.9608L135.112 90.7895C135.112 90.7478 135.104 90.7066 135.088 90.6681C135.072 90.6296 135.049 90.5946 135.019 90.5652C134.99 90.5357 134.955 90.5123 134.916 90.4964C134.878 90.4804 134.837 90.4722 134.795 90.4722L126.03 90.4605C125.946 90.4605 125.865 90.4271 125.806 90.3676C125.746 90.3081 125.713 90.2274 125.713 90.1433L125.707 73.1603C125.707 73.0761 125.674 72.9954 125.614 72.936C125.555 72.8765 125.474 72.843 125.39 72.843H117.812C117.728 72.843 117.647 72.8765 117.588 72.936C117.528 72.9954 117.495 73.0761 117.495 73.1603L117.489 81.3375C117.489 81.4216 117.455 81.5023 117.396 81.5618C117.336 81.6213 117.256 81.6547 117.172 81.6547L108.401 81.6723C108.317 81.6723 108.236 81.6389 108.177 81.5794C108.117 81.5199 108.084 81.4392 108.084 81.3551L108.09 54.3503C108.09 54.3087 108.098 54.2674 108.114 54.2289C108.13 54.1904 108.153 54.1555 108.183 54.126C108.212 54.0966 108.247 54.0732 108.286 54.0572C108.324 54.0413 108.365 54.0331 108.407 54.0331L116.578 54.0507C116.62 54.0507 116.661 54.0425 116.7 54.0266C116.738 54.0106 116.773 53.9873 116.803 53.9578C116.832 53.9283 116.855 53.8934 116.871 53.8549C116.887 53.8164 116.895 53.7752 116.895 53.7335L116.901 46.1378C116.901 46.0962 116.893 46.0549 116.877 46.0165C116.861 45.978 116.838 45.943 116.808 45.9135C116.779 45.8841 116.744 45.8607 116.706 45.8448C116.667 45.8288 116.626 45.8206 116.584 45.8206H108.413C108.329 45.8206 108.248 45.7872 108.188 45.7277C108.129 45.6682 108.096 45.5875 108.096 45.5034L108.078 36.7446C108.078 36.6605 108.045 36.5798 107.985 36.5203C107.926 36.4608 107.845 36.4274 107.761 36.4274L99.5835 36.4215C99.5418 36.4215 99.5006 36.4297 99.4621 36.4457C99.4236 36.4616 99.3886 36.485 99.3592 36.5144C99.3297 36.5439 99.3064 36.5789 99.2904 36.6174C99.2745 36.6558 99.2663 36.6971 99.2663 36.7387L99.278 63.1267C99.278 63.2109 99.2446 63.2915 99.1851 63.351C99.1256 63.4105 99.0449 63.4439 98.9608 63.4439H90.7836C90.6995 63.4439 90.6188 63.4774 90.5593 63.5369C90.4998 63.5963 90.4664 63.677 90.4664 63.7612V71.9384C90.4664 72.0225 90.4998 72.1032 90.5593 72.1627C90.6188 72.2222 90.6995 72.2556 90.7836 72.2556H98.9608C99.0449 72.2556 99.1256 72.289 99.1851 72.3485C99.2446 72.408 99.278 72.4887 99.278 72.5728V89.5558C99.278 89.64 99.3114 89.7206 99.3709 89.7801C99.4304 89.8396 99.5111 89.8731 99.5952 89.8731L117.172 89.8789C117.256 89.8789 117.336 89.9123 117.396 89.9718C117.455 90.0313 117.489 90.112 117.489 90.1961L117.495 99.5424C117.495 99.6265 117.461 99.7072 117.402 99.7667C117.342 99.8262 117.262 99.8596 117.177 99.8596L109 99.8655C108.916 99.8655 108.835 99.8989 108.776 99.9584C108.716 100.018 108.683 100.099 108.683 100.183L108.671 108.36C108.671 108.444 108.638 108.525 108.578 108.584C108.519 108.644 108.438 108.677 108.354 108.677H99.5776C99.4935 108.677 99.4128 108.711 99.3533 108.77C99.2938 108.83 99.2604 108.91 99.2604 108.994L99.278 126.577C99.278 126.661 99.2446 126.741 99.1851 126.801C99.1256 126.86 99.0449 126.894 98.9608 126.894L90.1961 126.888C90.112 126.888 90.0313 126.854 89.9718 126.795C89.9123 126.735 89.8789 126.655 89.8789 126.571V117.812C89.8789 117.728 89.8455 117.647 89.786 117.588C89.7265 117.528 89.6458 117.495 89.5617 117.495L81.9778 117.489C81.9361 117.489 81.8949 117.497 81.8564 117.513C81.8179 117.529 81.783 117.552 81.7535 117.582C81.724 117.611 81.7007 117.646 81.6847 117.685C81.6688 117.723 81.6606 117.764 81.6606 117.806L81.6488 126.577C81.6488 126.661 81.6154 126.741 81.5559 126.801C81.4964 126.86 81.4157 126.894 81.3316 126.894L72.5728 126.888C72.5312 126.888 72.4899 126.896 72.4514 126.912C72.4129 126.928 72.378 126.951 72.3485 126.981C72.3191 127.01 72.2957 127.045 72.2798 127.084C72.2638 127.122 72.2556 127.163 72.2556 127.205L72.2674 135.382C72.2674 135.466 72.2339 135.547 72.1744 135.607C72.115 135.666 72.0343 135.7 71.9501 135.7H36.1513C36.0672 135.7 35.9865 135.666 35.927 135.607C35.8675 135.547 35.8341 135.466 35.8341 135.382V127.211C35.8341 127.127 35.8007 127.046 35.7412 126.987C35.6817 126.927 35.601 126.894 35.5169 126.894L27.9271 126.888C27.8854 126.888 27.8442 126.896 27.8057 126.912C27.7672 126.928 27.7322 126.951 27.7028 126.981C27.6733 127.01 27.65 127.045 27.634 127.084C27.6181 127.122 27.6099 127.163 27.6099 127.205L27.6157 135.382C27.6157 135.466 27.5823 135.547 27.5228 135.607C27.4633 135.666 27.3827 135.7 27.2985 135.7H18.5221C18.438 135.7 18.3573 135.733 18.2978 135.792C18.2383 135.852 18.2049 135.933 18.2049 136.017L18.2225 144.194C18.2225 144.278 18.2559 144.359 18.3154 144.418C18.3749 144.478 18.4556 144.511 18.5397 144.511H44.916ZM171.205 54.0448C171.292 54.0448 171.376 54.0795 171.437 54.1412C171.499 54.2029 171.534 54.2866 171.534 54.3738V80.7383C171.534 80.8255 171.568 80.9092 171.63 80.9709C171.692 81.0326 171.775 81.0673 171.863 81.0673H180.016C180.104 81.0673 180.187 81.0326 180.249 80.9709C180.311 80.9092 180.345 80.8255 180.345 80.7383L180.351 46.1555C180.351 46.0682 180.317 45.9845 180.255 45.9229C180.193 45.8612 180.109 45.8265 180.022 45.8265L162.464 45.8206C162.376 45.8206 162.293 45.786 162.231 45.7243C162.169 45.6626 162.135 45.5789 162.135 45.4917V36.7564C162.135 36.6691 162.1 36.5854 162.038 36.5238C161.976 36.4621 161.893 36.4274 161.806 36.4274L144.852 36.4215C144.765 36.4215 144.681 36.4562 144.619 36.5179C144.558 36.5796 144.523 36.6632 144.523 36.7505L144.529 44.9101C144.529 44.9973 144.564 45.081 144.625 45.1427C144.687 45.2044 144.771 45.2391 144.858 45.2391L152.994 45.2332C153.081 45.2332 153.165 45.2678 153.227 45.3295C153.288 45.3912 153.323 45.4749 153.323 45.5622V63.115C153.323 63.2022 153.288 63.2859 153.227 63.3476C153.165 63.4093 153.081 63.4439 152.994 63.4439H144.253C144.165 63.4439 144.082 63.4093 144.02 63.3476C143.958 63.2859 143.924 63.2022 143.924 63.115V46.1496C143.924 46.0623 143.889 45.9787 143.827 45.917C143.766 45.8553 143.682 45.8206 143.595 45.8206H136.029C135.941 45.8206 135.858 45.8553 135.796 45.917C135.734 45.9787 135.7 46.0623 135.7 46.1496V63.115C135.7 63.2022 135.665 63.2859 135.603 63.3476C135.542 63.4093 135.458 63.4439 135.371 63.4439H126.624C126.536 63.4439 126.453 63.4786 126.391 63.5403C126.329 63.602 126.295 63.6857 126.295 63.7729L126.306 71.9208C126.306 72.008 126.341 72.0917 126.403 72.1534C126.464 72.2151 126.548 72.2497 126.635 72.2497L135.371 72.2556C135.458 72.2556 135.542 72.2903 135.603 72.352C135.665 72.4137 135.7 72.4973 135.7 72.5846V80.7442C135.7 80.8314 135.734 80.9151 135.796 80.9768C135.858 81.0385 135.941 81.0731 136.029 81.0731L143.595 81.0673C143.682 81.0673 143.766 81.0326 143.827 80.9709C143.889 80.9092 143.924 80.8255 143.924 80.7383L143.918 72.5846C143.918 72.4973 143.953 72.4137 144.014 72.352C144.076 72.2903 144.16 72.2556 144.247 72.2556L161.806 72.2615C161.893 72.2615 161.976 72.2268 162.038 72.1651C162.1 72.1034 162.135 72.0198 162.135 71.9325V54.3738C162.135 54.2866 162.169 54.2029 162.231 54.1412C162.293 54.0795 162.376 54.0448 162.464 54.0448H171.205ZM89.8784 55.0657C89.8783 55.0071 89.8666 54.949 89.8441 54.8949C89.8216 54.8408 89.7886 54.7916 89.7471 54.7502C89.7056 54.7088 89.6563 54.676 89.6021 54.6537C89.5479 54.6314 89.4898 54.6199 89.4312 54.62L82.0999 54.6328C82.0412 54.6329 81.9832 54.6446 81.9291 54.6671C81.8749 54.6896 81.8258 54.7226 81.7844 54.7641C81.743 54.8056 81.7102 54.8549 81.6879 54.9091C81.6655 54.9633 81.6541 55.0214 81.6542 55.08L81.667 62.4113C81.6671 62.47 81.6787 62.528 81.7013 62.5821C81.7238 62.6363 81.7568 62.6854 81.7983 62.7268C81.8398 62.7682 81.8891 62.801 81.9433 62.8233C81.9975 62.8457 82.0556 62.8571 82.1142 62.857L89.4455 62.8442C89.5041 62.8441 89.5622 62.8325 89.6163 62.8099C89.6704 62.7874 89.7196 62.7545 89.761 62.7129C89.8024 62.6714 89.8352 62.6221 89.8575 62.5679C89.8799 62.5137 89.8913 62.4556 89.8912 62.397L89.8784 55.0657ZM125.706 54.9835C125.706 54.8869 125.668 54.7943 125.599 54.7261C125.531 54.6579 125.438 54.6197 125.342 54.6199L117.846 54.6329C117.798 54.633 117.751 54.6425 117.706 54.6609C117.662 54.6793 117.622 54.7062 117.588 54.7401C117.555 54.7739 117.528 54.8141 117.51 54.8584C117.492 54.9026 117.482 54.95 117.482 54.9978L117.495 62.5053C117.496 62.6019 117.534 62.6945 117.602 62.7627C117.671 62.8308 117.764 62.8691 117.86 62.8689L125.356 62.8559C125.404 62.8558 125.451 62.8463 125.495 62.8279C125.539 62.8095 125.58 62.7826 125.613 62.7487C125.647 62.7148 125.674 62.6746 125.692 62.6304C125.71 62.5862 125.72 62.5388 125.72 62.491L125.706 54.9835ZM71.6687 82.1102C71.6688 82.0538 71.6578 81.998 71.6363 81.946C71.6149 81.8939 71.5834 81.8466 71.5436 81.8067C71.5039 81.7668 71.4567 81.7351 71.4047 81.7135C71.3527 81.6918 71.2969 81.6807 71.2406 81.6806L55.0624 81.6524C55.0061 81.6523 54.9503 81.6633 54.8982 81.6847C54.8462 81.7062 54.7989 81.7377 54.759 81.7774C54.7191 81.8172 54.6874 81.8644 54.6657 81.9164C54.6441 81.9684 54.6329 82.0241 54.6328 82.0804L54.62 89.4352C54.6199 89.4915 54.6309 89.5473 54.6524 89.5994C54.6738 89.6515 54.7053 89.6988 54.7451 89.7387C54.7848 89.7786 54.832 89.8102 54.884 89.8319C54.936 89.8535 54.9918 89.8647 55.0481 89.8648L71.2263 89.893C71.2826 89.8931 71.3384 89.8821 71.3904 89.8607C71.4425 89.8392 71.4899 89.8077 71.5297 89.768C71.5696 89.7282 71.6013 89.681 71.6229 89.629C71.6446 89.577 71.6558 89.5213 71.6559 89.465L71.6687 82.1102ZM89.8724 82.0235C89.8723 81.9749 89.8627 81.9268 89.844 81.8819C89.8253 81.8371 89.798 81.7963 89.7635 81.762C89.7291 81.7277 89.6883 81.7005 89.6433 81.682C89.5984 81.6635 89.5503 81.654 89.5017 81.6541L82.0176 81.6671C81.969 81.6672 81.9209 81.6768 81.8761 81.6955C81.8312 81.7142 81.7904 81.7415 81.7561 81.776C81.7218 81.8104 81.6946 81.8512 81.6761 81.8962C81.6576 81.9411 81.6481 81.9892 81.6482 82.0378L81.6612 89.4984C81.6613 89.547 81.671 89.5951 81.6897 89.64C81.7083 89.6848 81.7357 89.7256 81.7701 89.7599C81.8045 89.7942 81.8454 89.8214 81.8903 89.8399C81.9352 89.8584 81.9834 89.8679 82.032 89.8678L89.516 89.8548C89.5646 89.8547 89.6127 89.845 89.6576 89.8264C89.7024 89.8077 89.7432 89.7804 89.7775 89.7459C89.8118 89.7115 89.839 89.6707 89.8575 89.6257C89.876 89.5808 89.8855 89.5326 89.8854 89.484L89.8724 82.0235ZM153.047 126.3C153.12 126.3 153.19 126.33 153.242 126.381C153.294 126.433 153.323 126.503 153.323 126.577V144.235C153.323 144.308 153.352 144.379 153.404 144.43C153.456 144.482 153.526 144.511 153.599 144.511H170.67C170.706 144.511 170.742 144.504 170.776 144.49C170.809 144.476 170.84 144.456 170.865 144.43C170.891 144.405 170.911 144.374 170.925 144.341C170.939 144.307 170.946 144.271 170.946 144.235L170.952 135.976C170.952 135.902 170.923 135.832 170.871 135.78C170.819 135.729 170.749 135.7 170.676 135.7L162.411 135.705C162.374 135.705 162.338 135.698 162.305 135.684C162.271 135.671 162.241 135.65 162.215 135.625C162.19 135.599 162.169 135.568 162.156 135.535C162.142 135.501 162.135 135.466 162.135 135.429L162.129 126.571C162.129 126.497 162.158 126.427 162.21 126.375C162.261 126.324 162.332 126.295 162.405 126.295L170.682 126.3C170.718 126.3 170.754 126.293 170.787 126.279C170.821 126.266 170.851 126.245 170.877 126.22C170.903 126.194 170.923 126.164 170.937 126.13C170.951 126.097 170.958 126.061 170.958 126.024L170.94 117.765C170.94 117.692 170.911 117.621 170.859 117.57C170.808 117.518 170.737 117.489 170.664 117.489H162.411C162.374 117.489 162.338 117.482 162.305 117.468C162.271 117.454 162.241 117.434 162.215 117.408C162.19 117.382 162.169 117.352 162.156 117.318C162.142 117.285 162.135 117.249 162.135 117.213V108.366C162.135 108.33 162.142 108.294 162.156 108.26C162.169 108.227 162.19 108.196 162.215 108.171C162.241 108.145 162.271 108.125 162.305 108.111C162.338 108.097 162.374 108.09 162.411 108.09H170.676C170.749 108.09 170.819 108.061 170.871 108.009C170.923 107.957 170.952 107.887 170.952 107.814L170.946 99.5483C170.946 99.475 170.975 99.4048 171.027 99.353C171.079 99.3012 171.149 99.2722 171.222 99.2722L180.075 99.278C180.148 99.278 180.219 99.2489 180.27 99.1972C180.322 99.1454 180.351 99.0752 180.351 99.0019L180.339 90.7425C180.339 90.6692 180.31 90.599 180.259 90.5472C180.207 90.4955 180.137 90.4664 180.063 90.4664H171.222C171.149 90.4664 171.079 90.4373 171.027 90.3855C170.975 90.3337 170.946 90.2635 170.946 90.1903V81.9367C170.946 81.9004 170.939 81.8645 170.925 81.831C170.911 81.7975 170.891 81.7671 170.865 81.7414C170.84 81.7158 170.809 81.6955 170.776 81.6816C170.742 81.6677 170.706 81.6606 170.67 81.6606L162.992 81.6547C162.919 81.6547 162.849 81.6838 162.797 81.7356C162.745 81.7874 162.716 81.8576 162.716 81.9308L162.728 90.1903C162.728 90.2635 162.699 90.3337 162.647 90.3855C162.595 90.4373 162.525 90.4664 162.452 90.4664H144.787C144.714 90.4664 144.644 90.4955 144.592 90.5472C144.54 90.599 144.511 90.6692 144.511 90.7425V126.024C144.511 126.061 144.518 126.097 144.532 126.13C144.546 126.164 144.566 126.194 144.592 126.22C144.618 126.245 144.648 126.266 144.682 126.279C144.715 126.293 144.751 126.3 144.787 126.3H153.047ZM98.6778 90.9292C98.6777 90.8682 98.6656 90.8079 98.6422 90.7516C98.6188 90.6954 98.5845 90.6443 98.5413 90.6012C98.4982 90.5582 98.4469 90.5241 98.3906 90.5009C98.3343 90.4777 98.2739 90.4658 98.2129 90.4659L90.9404 90.4786C90.8794 90.4787 90.8191 90.4908 90.7628 90.5142C90.7066 90.5376 90.6555 90.5719 90.6125 90.6151C90.5694 90.6583 90.5353 90.7095 90.5121 90.7658C90.4889 90.8222 90.477 90.8825 90.4771 90.9435L90.4909 98.8152C90.491 98.8762 90.5031 98.9365 90.5265 98.9928C90.5499 99.049 90.5842 99.1001 90.6274 99.1432C90.6705 99.1862 90.7218 99.2203 90.7781 99.2435C90.8344 99.2667 90.8948 99.2786 90.9558 99.2785L98.2283 99.2658C98.2893 99.2657 98.3496 99.2536 98.4059 99.2302C98.4621 99.2067 98.5132 99.1725 98.5562 99.1293C98.5993 99.0861 98.6334 99.0349 98.6566 98.9786C98.6798 98.9222 98.6917 98.8619 98.6916 98.8009L98.6778 90.9292ZM216.178 90.8528C216.178 90.8011 216.168 90.7499 216.148 90.7022C216.128 90.6545 216.099 90.6112 216.062 90.5747C216.026 90.5382 215.982 90.5093 215.935 90.4896C215.887 90.4699 215.836 90.4598 215.784 90.4599L208.359 90.4728C208.307 90.4729 208.256 90.4832 208.208 90.5031C208.16 90.5229 208.117 90.552 208.081 90.5886C208.044 90.6252 208.015 90.6687 207.995 90.7164C207.976 90.7642 207.966 90.8154 207.966 90.8671L207.98 98.8916C207.98 98.9433 207.99 98.9945 208.01 99.0422C208.03 99.0899 208.059 99.1332 208.096 99.1697C208.132 99.2062 208.176 99.2351 208.223 99.2548C208.271 99.2745 208.322 99.2846 208.374 99.2845L215.799 99.2716C215.851 99.2715 215.902 99.2612 215.95 99.2413C215.998 99.2215 216.041 99.1924 216.077 99.1558C216.114 99.1192 216.143 99.0757 216.163 99.0279C216.182 98.9802 216.192 98.929 216.192 98.8773L216.178 90.8528ZM54.039 108.448C54.039 108.353 54.0767 108.262 54.1439 108.195C54.2111 108.127 54.3023 108.09 54.3973 108.09H62.504C62.5991 108.09 62.6902 108.052 62.7574 107.985C62.8246 107.918 62.8624 107.826 62.8624 107.731V100.236C62.8624 100.141 62.8246 100.049 62.7574 99.9822C62.6902 99.915 62.5991 99.8772 62.504 99.8772L45.6091 99.8596C45.5141 99.8596 45.423 99.8974 45.3558 99.9646C45.2886 100.032 45.2508 100.123 45.2508 100.218L45.2273 108.325C45.2273 108.42 45.1896 108.511 45.1224 108.578C45.0552 108.645 44.964 108.683 44.869 108.683L36.7857 108.671C36.6907 108.671 36.5996 108.709 36.5324 108.776C36.4652 108.843 36.4274 108.935 36.4274 109.03L36.4215 116.543C36.4215 116.638 36.4593 116.729 36.5265 116.796C36.5937 116.864 36.6848 116.901 36.7799 116.901H53.6924C53.7874 116.901 53.8786 116.864 53.9458 116.796C54.013 116.729 54.0507 116.638 54.0507 116.543L54.039 108.448ZM89.8731 100.306C89.8731 100.191 89.8272 100.08 89.7457 99.9987C89.6642 99.9171 89.5536 99.8713 89.4383 99.8713H82.107C81.9918 99.8713 81.8812 99.9171 81.7997 99.9987C81.7181 100.08 81.6723 100.191 81.6723 100.306V107.649C81.6723 107.764 81.7181 107.875 81.7997 107.956C81.8812 108.038 81.9918 108.084 82.107 108.084H89.4383C89.5536 108.084 89.6642 108.038 89.7457 107.956C89.8272 107.875 89.8731 107.764 89.8731 107.649V100.306ZM207.374 100.208C207.374 100.164 207.366 100.12 207.349 100.08C207.332 100.039 207.308 100.002 207.277 99.9711C207.246 99.9399 207.209 99.9152 207.168 99.8983C207.128 99.8814 207.084 99.8727 207.04 99.8726L198.898 99.8584C198.854 99.8583 198.811 99.8669 198.77 99.8836C198.729 99.9004 198.692 99.925 198.661 99.956C198.63 99.9871 198.605 100.024 198.588 100.065C198.571 100.105 198.563 100.149 198.563 100.193L198.549 107.747C198.549 107.791 198.558 107.835 198.575 107.875C198.591 107.916 198.616 107.953 198.647 107.984C198.678 108.015 198.715 108.04 198.756 108.057C198.796 108.074 198.84 108.083 198.884 108.083L207.026 108.097C207.07 108.097 207.113 108.088 207.154 108.072C207.195 108.055 207.231 108.03 207.263 107.999C207.294 107.968 207.319 107.931 207.335 107.891C207.352 107.85 207.361 107.807 207.361 107.763L207.374 100.208ZM27.016 109.098C27.0158 108.985 26.9704 108.876 26.8898 108.795C26.8093 108.715 26.7001 108.67 26.5864 108.67L18.6324 108.684C18.5761 108.684 18.5204 108.695 18.4684 108.717C18.4164 108.739 18.3692 108.77 18.3294 108.81C18.2897 108.85 18.2582 108.897 18.2367 108.949C18.2153 109.002 18.2043 109.057 18.2044 109.114L18.2172 116.48C18.2174 116.594 18.2628 116.703 18.3433 116.783C18.4239 116.863 18.533 116.908 18.6468 116.908L26.6008 116.894C26.6571 116.894 26.7128 116.883 26.7648 116.861C26.8168 116.84 26.864 116.808 26.9038 116.768C26.9435 116.728 26.975 116.681 26.9965 116.629C27.0179 116.577 27.0289 116.521 27.0288 116.465L27.016 109.098ZM81.0679 109.09C81.0679 109.038 81.0579 108.987 81.0382 108.939C81.0185 108.892 80.9895 108.848 80.9531 108.812C80.9166 108.775 80.8732 108.746 80.8255 108.726C80.7778 108.706 80.7267 108.696 80.675 108.696L72.6505 108.682C72.5988 108.682 72.5476 108.692 72.4998 108.712C72.452 108.731 72.4086 108.76 72.372 108.797C72.3354 108.833 72.3063 108.876 72.2864 108.924C72.2666 108.972 72.2563 109.023 72.2562 109.075L72.2433 116.5C72.2432 116.552 72.2533 116.603 72.273 116.651C72.2927 116.699 72.3216 116.742 72.3581 116.779C72.3945 116.815 72.4379 116.844 72.4856 116.864C72.5333 116.884 72.5845 116.894 72.6361 116.894L80.6606 116.908C80.7123 116.908 80.7635 116.898 80.8113 116.879C80.8591 116.859 80.9025 116.83 80.9391 116.794C80.9758 116.757 81.0048 116.714 81.0247 116.666C81.0446 116.618 81.0548 116.567 81.0549 116.515L81.0679 109.09ZM180.58 116.901C180.627 116.901 180.674 116.911 180.717 116.929C180.761 116.947 180.8 116.973 180.834 117.006C180.867 117.04 180.893 117.079 180.911 117.123C180.929 117.166 180.939 117.213 180.939 117.26L180.921 125.942C180.921 126.037 180.959 126.128 181.026 126.196C181.093 126.263 181.184 126.3 181.279 126.3H188.793C188.888 126.3 188.979 126.263 189.046 126.196C189.113 126.128 189.151 126.037 189.151 125.942L189.163 117.26C189.163 117.213 189.172 117.166 189.19 117.123C189.208 117.079 189.234 117.04 189.268 117.006C189.301 116.973 189.341 116.947 189.384 116.929C189.428 116.911 189.474 116.901 189.521 116.901H197.616C197.711 116.901 197.802 116.864 197.87 116.796C197.937 116.729 197.974 116.638 197.974 116.543L197.963 109.041C197.963 108.946 197.925 108.855 197.858 108.788C197.791 108.721 197.699 108.683 197.604 108.683L171.892 108.677C171.845 108.677 171.798 108.686 171.755 108.704C171.711 108.722 171.672 108.749 171.639 108.782C171.605 108.815 171.579 108.855 171.561 108.898C171.543 108.942 171.534 108.988 171.534 109.035L171.522 116.543C171.522 116.638 171.56 116.729 171.627 116.796C171.694 116.864 171.785 116.901 171.88 116.901H180.58ZM62.8695 117.79C62.8697 117.712 62.8389 117.637 62.7839 117.582C62.7289 117.527 62.6542 117.496 62.5764 117.495L54.9396 117.482C54.901 117.482 54.8628 117.49 54.8271 117.504C54.7915 117.519 54.7591 117.541 54.7317 117.568C54.7044 117.595 54.6827 117.627 54.6679 117.663C54.6531 117.699 54.6454 117.737 54.6453 117.775L54.631 126C54.6309 126.077 54.6617 126.152 54.7167 126.207C54.7717 126.263 54.8463 126.294 54.9242 126.294L62.561 126.307C62.5995 126.307 62.6377 126.3 62.6734 126.285C62.7091 126.27 62.7415 126.249 62.7688 126.221C62.7961 126.194 62.8178 126.162 62.8326 126.126C62.8475 126.091 62.8551 126.052 62.8552 126.014L62.8695 117.79ZM180.352 127.289C180.352 127.237 180.342 127.186 180.322 127.138C180.302 127.091 180.273 127.047 180.237 127.011C180.2 126.974 180.157 126.945 180.109 126.925C180.062 126.905 180.011 126.895 179.959 126.895L171.934 126.881C171.83 126.881 171.73 126.922 171.656 126.996C171.582 127.069 171.54 127.169 171.54 127.274L171.527 134.711C171.527 134.763 171.537 134.814 171.557 134.861C171.577 134.909 171.605 134.953 171.642 134.989C171.678 135.026 171.722 135.055 171.769 135.075C171.817 135.095 171.868 135.105 171.92 135.105L179.945 135.119C180.049 135.119 180.149 135.078 180.223 135.004C180.297 134.931 180.339 134.831 180.339 134.726L180.352 127.289ZM207.374 127.213C207.374 127.172 207.366 127.131 207.351 127.094C207.335 127.056 207.312 127.021 207.284 126.993C207.255 126.964 207.22 126.941 207.183 126.925C207.145 126.909 207.104 126.901 207.064 126.901L198.875 126.887C198.834 126.887 198.793 126.895 198.755 126.91C198.718 126.926 198.683 126.949 198.654 126.977C198.625 127.006 198.602 127.041 198.587 127.078C198.571 127.116 198.563 127.157 198.563 127.197L198.549 134.787C198.549 134.828 198.557 134.869 198.573 134.906C198.588 134.944 198.611 134.979 198.64 135.008C198.669 135.036 198.703 135.059 198.741 135.075C198.779 135.091 198.819 135.099 198.86 135.099L207.049 135.113C207.09 135.113 207.131 135.105 207.168 135.09C207.206 135.074 207.241 135.051 207.27 135.023C207.298 134.994 207.321 134.959 207.337 134.922C207.353 134.884 207.361 134.843 207.361 134.803L207.374 127.213ZM207.955 144.793C207.955 144.874 207.923 144.952 207.866 145.009C207.808 145.066 207.731 145.099 207.65 145.099H189.462C189.381 145.099 189.304 145.066 189.246 145.009C189.189 144.952 189.157 144.874 189.157 144.793V136.011C189.157 135.93 189.125 135.852 189.067 135.795C189.01 135.738 188.932 135.705 188.851 135.705L181.238 135.694C181.157 135.694 181.079 135.726 181.022 135.783C180.965 135.84 180.933 135.918 180.933 135.999V171.228C180.933 171.309 180.965 171.387 181.022 171.444C181.079 171.501 181.157 171.534 181.238 171.534H188.851C188.932 171.534 189.01 171.501 189.067 171.444C189.125 171.387 189.157 171.309 189.157 171.228V153.628C189.157 153.547 189.189 153.47 189.246 153.412C189.304 153.355 189.381 153.323 189.462 153.323H224.686C224.767 153.323 224.844 153.291 224.902 153.233C224.959 153.176 224.991 153.098 224.991 153.017L224.985 145.392C224.985 145.311 224.953 145.234 224.896 145.176C224.838 145.119 224.761 145.087 224.68 145.087L216.485 145.122C216.404 145.122 216.326 145.09 216.269 145.033C216.212 144.975 216.179 144.898 216.179 144.817V135.999C216.179 135.918 216.147 135.84 216.09 135.783C216.033 135.726 215.955 135.694 215.874 135.694L208.261 135.705C208.18 135.705 208.102 135.738 208.045 135.795C207.987 135.852 207.955 135.93 207.955 136.011V144.793ZM234.397 135.93C234.397 135.901 234.392 135.872 234.381 135.845C234.369 135.818 234.353 135.793 234.332 135.773C234.312 135.752 234.287 135.735 234.26 135.724C234.233 135.713 234.204 135.707 234.175 135.707L225.809 135.692C225.78 135.692 225.751 135.698 225.724 135.709C225.697 135.72 225.672 135.737 225.651 135.757C225.631 135.778 225.614 135.803 225.603 135.83C225.592 135.857 225.586 135.886 225.586 135.915L225.571 144.28C225.571 144.31 225.577 144.339 225.588 144.366C225.599 144.393 225.616 144.417 225.636 144.438C225.657 144.459 225.682 144.476 225.709 144.487C225.736 144.498 225.765 144.504 225.794 144.504L234.159 144.518C234.189 144.519 234.218 144.513 234.245 144.502C234.272 144.49 234.296 144.474 234.317 144.453C234.338 144.433 234.354 144.408 234.366 144.381C234.377 144.354 234.383 144.325 234.383 144.296L234.397 135.93ZM27.016 154.308C27.0159 154.255 27.0053 154.202 26.9848 154.153C26.9644 154.104 26.9344 154.059 26.8967 154.022C26.859 153.984 26.8143 153.954 26.7651 153.934C26.7159 153.914 26.6631 153.903 26.6099 153.903L18.6207 153.917C18.5675 153.917 18.5148 153.928 18.4656 153.948C18.4165 153.969 18.3718 153.999 18.3343 154.037C18.2967 154.074 18.2669 154.119 18.2466 154.168C18.2264 154.217 18.216 154.27 18.2161 154.323L18.229 161.737C18.2291 161.79 18.2396 161.843 18.2601 161.892C18.2806 161.941 18.3105 161.986 18.3482 162.023C18.3859 162.061 18.4306 162.091 18.4798 162.111C18.5291 162.131 18.5818 162.142 18.635 162.142L26.6243 162.128C26.6775 162.127 26.7302 162.117 26.7793 162.096C26.8285 162.076 26.8731 162.046 26.9107 162.008C26.9482 161.971 26.978 161.926 26.9983 161.877C27.0186 161.827 27.029 161.775 27.0289 161.721L27.016 154.308ZM144.511 171.927C144.511 171.979 144.491 172.028 144.454 172.064C144.418 172.101 144.369 172.121 144.317 172.121H135.893C135.842 172.121 135.793 172.141 135.756 172.178C135.72 172.214 135.7 172.264 135.7 172.315V180.151C135.7 180.203 135.72 180.252 135.756 180.289C135.793 180.325 135.842 180.345 135.893 180.345H161.941C161.992 180.345 162.041 180.325 162.078 180.289C162.114 180.252 162.135 180.203 162.135 180.151V172.303C162.135 172.252 162.114 172.202 162.078 172.166C162.041 172.13 161.992 172.109 161.941 172.109L152.929 172.127C152.878 172.127 152.829 172.107 152.792 172.07C152.756 172.034 152.735 171.984 152.735 171.933V162.328C152.735 162.277 152.756 162.228 152.792 162.191C152.829 162.155 152.878 162.135 152.929 162.135H170.758C170.81 162.135 170.859 162.114 170.895 162.078C170.932 162.041 170.952 161.992 170.952 161.941V154.104C170.952 154.053 170.932 154.003 170.895 153.967C170.859 153.931 170.81 153.91 170.758 153.91H144.705C144.654 153.91 144.604 153.931 144.568 153.967C144.532 154.003 144.511 154.053 144.511 154.104V171.927ZM234.397 154.2C234.397 154.163 234.39 154.126 234.376 154.092C234.361 154.058 234.341 154.027 234.315 154C234.288 153.974 234.257 153.953 234.223 153.939C234.189 153.925 234.152 153.918 234.115 153.918L225.868 153.903C225.793 153.903 225.721 153.933 225.668 153.985C225.615 154.038 225.585 154.11 225.585 154.185L225.572 161.845C225.572 161.882 225.579 161.919 225.593 161.953C225.607 161.987 225.628 162.018 225.654 162.044C225.68 162.071 225.711 162.091 225.745 162.106C225.78 162.12 225.816 162.127 225.853 162.127L234.101 162.142C234.176 162.142 234.248 162.112 234.3 162.059C234.353 162.007 234.383 161.935 234.383 161.86L234.397 154.2ZM35.84 163.168C35.84 163.052 35.7935 162.94 35.7109 162.857C35.6283 162.774 35.5162 162.728 35.3994 162.728H28.0563C27.9395 162.728 27.8274 162.774 27.7448 162.857C27.6622 162.94 27.6157 163.052 27.6157 163.168V171.099C27.6157 171.216 27.6622 171.328 27.7448 171.41C27.8274 171.493 27.9395 171.54 28.0563 171.54H35.3994C35.5162 171.54 35.6283 171.493 35.7109 171.41C35.7935 171.328 35.84 171.216 35.84 171.099V163.168ZM44.6332 172.414C44.6332 172.373 44.625 172.332 44.6093 172.294C44.5936 172.257 44.5706 172.222 44.5417 172.193C44.5127 172.165 44.4783 172.142 44.4405 172.126C44.4027 172.111 44.3622 172.103 44.3214 172.103L36.7316 172.116C36.6907 172.116 36.6502 172.124 36.6125 172.14C36.5747 172.156 36.5404 172.179 36.5116 172.208C36.4827 172.236 36.4598 172.271 36.4443 172.309C36.4287 172.346 36.4207 172.387 36.4208 172.428L36.434 180.041C36.4341 180.082 36.4422 180.122 36.4579 180.16C36.4737 180.198 36.4966 180.232 36.5256 180.261C36.5546 180.29 36.5889 180.313 36.6267 180.328C36.6645 180.344 36.705 180.352 36.7459 180.352L44.3357 180.339C44.3766 180.339 44.417 180.33 44.4548 180.315C44.4925 180.299 44.5268 180.276 44.5557 180.247C44.5846 180.218 44.6074 180.184 44.623 180.146C44.6386 180.108 44.6466 180.068 44.6465 180.027L44.6332 172.414ZM62.8629 172.581C62.863 172.522 62.8516 172.464 62.8292 172.41C62.8069 172.355 62.7741 172.306 62.7327 172.265C62.6913 172.223 62.6421 172.19 62.588 172.168C62.5339 172.145 62.4758 172.133 62.4172 172.133L55.0859 172.121C55.0273 172.12 54.9692 172.132 54.915 172.154C54.8608 172.177 54.8115 172.209 54.77 172.251C54.7285 172.292 54.6955 172.341 54.673 172.395C54.6504 172.45 54.6388 172.508 54.6387 172.566L54.6259 179.886C54.6258 179.944 54.6372 180.002 54.6596 180.057C54.6819 180.111 54.7147 180.16 54.7561 180.202C54.7975 180.243 54.8467 180.276 54.9008 180.299C54.9549 180.321 55.013 180.333 55.0716 180.333L62.4029 180.346C62.4615 180.346 62.5196 180.334 62.5738 180.312C62.628 180.29 62.6773 180.257 62.7188 180.216C62.7603 180.174 62.7933 180.125 62.8158 180.071C62.8384 180.017 62.85 179.959 62.8501 179.9L62.8629 172.581ZM125.907 189.157C126.011 189.157 126.111 189.198 126.185 189.272C126.259 189.346 126.3 189.446 126.3 189.551V198.162C126.3 198.267 126.342 198.367 126.416 198.441C126.49 198.515 126.59 198.556 126.694 198.556H134.719C134.823 198.556 134.923 198.515 134.997 198.441C135.071 198.367 135.112 198.267 135.112 198.162V181.326C135.112 181.222 135.071 181.122 134.997 181.048C134.923 180.974 134.823 180.933 134.719 180.933H126.107C126.002 180.933 125.902 180.891 125.828 180.817C125.754 180.744 125.713 180.644 125.713 180.539V172.509C125.713 172.457 125.703 172.406 125.683 172.358C125.663 172.31 125.634 172.267 125.598 172.23C125.561 172.194 125.518 172.165 125.47 172.145C125.422 172.125 125.371 172.115 125.319 172.115L109.065 172.133C108.96 172.133 108.86 172.174 108.787 172.248C108.713 172.322 108.671 172.422 108.671 172.526L108.695 188.757C108.695 188.862 108.736 188.962 108.81 189.036C108.884 189.11 108.984 189.151 109.088 189.151L125.907 189.157ZM180.345 172.468C180.345 172.374 180.308 172.285 180.242 172.218C180.176 172.152 180.086 172.115 179.993 172.115H171.886C171.84 172.115 171.794 172.124 171.751 172.142C171.708 172.16 171.67 172.186 171.637 172.218C171.604 172.251 171.578 172.29 171.56 172.333C171.543 172.376 171.534 172.421 171.534 172.468V188.799C171.534 188.845 171.543 188.891 171.56 188.933C171.578 188.976 171.604 189.015 171.637 189.048C171.67 189.081 171.708 189.107 171.751 189.124C171.794 189.142 171.84 189.151 171.886 189.151H179.993C180.086 189.151 180.176 189.114 180.242 189.048C180.308 188.982 180.345 188.892 180.345 188.799V172.468ZM197.962 172.437C197.962 172.395 197.954 172.354 197.938 172.316C197.922 172.277 197.898 172.242 197.869 172.213C197.839 172.183 197.804 172.16 197.766 172.144C197.727 172.128 197.686 172.12 197.644 172.12L190.054 172.134C190.013 172.134 189.972 172.142 189.933 172.158C189.895 172.174 189.86 172.197 189.83 172.227C189.801 172.256 189.778 172.291 189.762 172.33C189.746 172.368 189.738 172.41 189.738 172.451L189.751 180.041C189.751 180.083 189.759 180.124 189.775 180.162C189.791 180.201 189.815 180.236 189.844 180.265C189.874 180.295 189.909 180.318 189.947 180.334C189.986 180.35 190.027 180.358 190.069 180.358L197.659 180.345C197.7 180.344 197.741 180.336 197.78 180.32C197.818 180.304 197.853 180.281 197.883 180.251C197.912 180.222 197.935 180.187 197.951 180.148C197.967 180.11 197.975 180.068 197.975 180.027L197.962 172.437ZM108.407 199.149C108.323 199.149 108.242 199.116 108.183 199.056C108.123 198.997 108.09 198.916 108.09 198.832L108.084 190.085C108.084 190.001 108.05 189.92 107.991 189.861C107.931 189.801 107.851 189.768 107.767 189.768L99.5776 189.75C99.4935 189.75 99.4128 189.784 99.3533 189.843C99.2938 189.903 99.2604 189.983 99.2604 190.067L99.278 198.82C99.278 198.905 99.2446 198.985 99.1851 199.045C99.1256 199.104 99.0449 199.138 98.9608 199.138H81.9543C81.8702 199.138 81.7895 199.171 81.73 199.231C81.6705 199.29 81.6371 199.371 81.6371 199.455L81.6665 207.05C81.6665 207.135 81.6999 207.215 81.7594 207.275C81.8189 207.334 81.8995 207.368 81.9837 207.368H90.1492C90.2333 207.368 90.314 207.401 90.3735 207.461C90.433 207.52 90.4664 207.601 90.4664 207.685L90.4722 215.862C90.4722 215.946 90.5057 216.027 90.5652 216.086C90.6246 216.146 90.7053 216.179 90.7895 216.179H107.772C107.857 216.179 107.937 216.146 107.997 216.086C108.056 216.027 108.09 215.946 108.09 215.862V207.673C108.09 207.589 108.123 207.508 108.183 207.449C108.242 207.389 108.323 207.356 108.407 207.356L116.596 207.374C116.68 207.374 116.761 207.34 116.82 207.281C116.88 207.221 116.913 207.141 116.913 207.056L116.901 199.461C116.901 199.419 116.893 199.378 116.877 199.339C116.861 199.301 116.838 199.266 116.808 199.236C116.779 199.207 116.744 199.184 116.706 199.168C116.667 199.152 116.626 199.143 116.584 199.143L108.407 199.149ZM216.179 189.962C216.179 189.904 216.156 189.849 216.116 189.808C216.075 189.767 216.02 189.744 215.962 189.744H189.962C189.904 189.744 189.849 189.767 189.808 189.808C189.767 189.849 189.744 189.904 189.744 189.962V215.962C189.744 216.02 189.767 216.075 189.808 216.116C189.849 216.156 189.904 216.179 189.962 216.179H215.962C216.02 216.179 216.075 216.156 216.116 216.116C216.156 216.075 216.179 216.02 216.179 215.962V189.962ZM234.607 216.179C234.707 216.179 234.803 216.219 234.873 216.289C234.944 216.36 234.983 216.456 234.983 216.555L234.978 225.202C234.978 225.302 235.017 225.398 235.088 225.468C235.158 225.539 235.254 225.578 235.354 225.578L242.832 225.584C242.931 225.584 243.027 225.545 243.098 225.474C243.168 225.404 243.208 225.308 243.208 225.208L243.184 208.343C243.184 208.243 243.145 208.148 243.074 208.077C243.004 208.007 242.908 207.967 242.808 207.967L225.937 207.961C225.837 207.961 225.741 208.001 225.671 208.071C225.6 208.142 225.561 208.237 225.561 208.337L225.578 215.809C225.578 215.909 225.618 216.005 225.689 216.075C225.759 216.146 225.855 216.185 225.954 216.185L234.607 216.179ZM224.991 226.501C224.991 226.412 224.956 226.327 224.893 226.264C224.83 226.201 224.745 226.166 224.656 226.166H190.091C190.002 226.166 189.917 226.201 189.854 226.264C189.791 226.327 189.756 226.412 189.756 226.501V234.055C189.756 234.144 189.791 234.229 189.854 234.292C189.917 234.355 190.002 234.39 190.091 234.39H224.656C224.745 234.39 224.83 234.355 224.893 234.292C224.956 234.229 224.991 234.144 224.991 234.055V226.501ZM252.007 226.488C252.007 226.4 251.972 226.317 251.91 226.255C251.848 226.194 251.765 226.159 251.677 226.159L244.111 226.173C244.024 226.173 243.94 226.208 243.879 226.269C243.817 226.331 243.783 226.415 243.783 226.502L243.796 234.068C243.796 234.156 243.831 234.239 243.893 234.301C243.954 234.362 244.038 234.397 244.125 234.397L251.692 234.383C251.779 234.383 251.862 234.349 251.924 234.287C251.986 234.225 252.02 234.141 252.02 234.054L252.007 226.488Z" fill="#3F8D9A"/>
<path d="M171.258 0H162.411C162.258 0 162.135 0.123614 162.135 0.276099V18.5221C162.135 18.6746 162.258 18.7982 162.411 18.7982H171.258C171.41 18.7982 171.534 18.6746 171.534 18.5221V0.276099C171.534 0.123614 171.41 0 171.258 0Z" fill="#3F8D9A"/>
<path d="M262 63.1326C262 63.2152 261.967 63.2944 261.909 63.3528C261.851 63.4111 261.771 63.4439 261.689 63.4439H198.28C198.198 63.4439 198.118 63.4111 198.06 63.3528C198.002 63.2944 197.969 63.2152 197.969 63.1326V0.311345C197.969 0.228771 198.002 0.149581 198.06 0.091192C198.118 0.0328035 198.198 0 198.28 0H261.689C261.771 0 261.851 0.0328035 261.909 0.091192C261.967 0.149581 262 0.228771 262 0.311345V63.1326ZM252.014 9.65758C252.014 9.58903 251.986 9.52328 251.938 9.47481C251.889 9.42633 251.824 9.3991 251.755 9.3991H208.214C208.145 9.3991 208.079 9.42633 208.031 9.47481C207.983 9.52328 207.955 9.58903 207.955 9.65758V53.7864C207.955 53.8549 207.983 53.9207 208.031 53.9691C208.079 54.0176 208.145 54.0448 208.214 54.0448H251.755C251.824 54.0448 251.889 54.0176 251.938 53.9691C251.986 53.9207 252.014 53.8549 252.014 53.7864V9.65758Z" fill="#3F8D9A"/>
<path d="M189.51 8.81152H180.581C180.451 8.81152 180.346 8.91673 180.346 9.0465V27.3748C180.346 27.5045 180.451 27.6097 180.581 27.6097H189.51C189.64 27.6097 189.745 27.5045 189.745 27.3748V9.0465C189.745 8.91673 189.64 8.81152 189.51 8.81152Z" fill="#3F8D9A"/>
<path d="M45.0156 18.2109H17.8404C17.7204 18.2109 17.623 18.3083 17.623 18.4283V45.6034C17.623 45.7235 17.7204 45.8208 17.8404 45.8208H45.0156C45.1356 45.8208 45.2329 45.7235 45.2329 45.6034V18.4283C45.2329 18.3083 45.1356 18.2109 45.0156 18.2109Z" fill="#3F8D9A"/>
<path d="M243.584 18.2109H216.385C216.272 18.2109 216.18 18.303 216.18 18.4165V45.6152C216.18 45.7288 216.272 45.8208 216.385 45.8208H243.584C243.697 45.8208 243.79 45.7288 243.79 45.6152V18.4165C243.79 18.303 243.697 18.2109 243.584 18.2109Z" fill="#3F8D9A"/>
<path d="M261.775 135.121L252.258 135.104C252.129 135.104 252.023 135.209 252.023 135.338L252.006 144.855C252.006 144.985 252.111 145.09 252.241 145.09L261.758 145.107C261.887 145.107 261.993 145.002 261.993 144.873L262.01 135.356C262.01 135.226 261.905 135.121 261.775 135.121Z" fill="#3F8D9A"/>
<path d="M63.4439 261.653C63.4439 261.745 63.4074 261.833 63.3424 261.898C63.2774 261.963 63.1893 262 63.0974 262H0.346592C0.25467 262 0.166512 261.963 0.101514 261.898C0.0365151 261.833 0 261.745 0 261.653V198.902C0 198.81 0.0365151 198.722 0.101514 198.657C0.166512 198.592 0.25467 198.556 0.346592 198.556H63.0974C63.1893 198.556 63.2774 198.592 63.3424 198.657C63.4074 198.722 63.4439 198.81 63.4439 198.902V261.653ZM54.0448 208.29C54.0448 208.201 54.0096 208.116 53.9468 208.053C53.884 207.99 53.7988 207.955 53.71 207.955H9.73395C9.64514 207.955 9.55997 207.99 9.49718 208.053C9.43438 208.116 9.3991 208.201 9.3991 208.29V252.266C9.3991 252.354 9.43438 252.44 9.49718 252.502C9.55997 252.565 9.64514 252.601 9.73395 252.601H53.71C53.7988 252.601 53.884 252.565 53.9468 252.502C54.0096 252.44 54.0448 252.354 54.0448 252.266V208.29Z" fill="#3F8D9A"/>
<path d="M207.597 198.556H198.327C198.126 198.556 197.963 198.719 197.963 198.92V207.591C197.963 207.792 198.126 207.955 198.327 207.955H207.597C207.798 207.955 207.961 207.792 207.961 207.591V198.92C207.961 198.719 207.798 198.556 207.597 198.556Z" fill="#3F8D9A"/>
<path d="M44.9862 216.18H17.8698C17.7335 216.18 17.623 216.29 17.623 216.426V243.543C17.623 243.679 17.7335 243.79 17.8698 243.79H44.9862C45.1224 243.79 45.2329 243.679 45.2329 243.543V216.426C45.2329 216.29 45.1224 216.18 44.9862 216.18Z" fill="#3F8D9A"/>
<path d="M162.134 252.278L162.128 234.708C162.128 234.622 162.162 234.54 162.223 234.479C162.283 234.419 162.365 234.385 162.451 234.385L171.204 234.39C171.29 234.39 171.372 234.424 171.432 234.485C171.493 234.546 171.527 234.628 171.527 234.714L171.539 242.879C171.539 242.965 171.573 243.047 171.633 243.107C171.694 243.168 171.776 243.202 171.862 243.202H180.609C180.695 243.202 180.777 243.236 180.837 243.297C180.898 243.357 180.932 243.44 180.932 243.525V261.677C180.932 261.763 180.898 261.845 180.837 261.906C180.777 261.966 180.695 262 180.609 262H135.434C135.349 262 135.267 261.966 135.206 261.906C135.145 261.845 135.111 261.763 135.111 261.677V252.924C135.111 252.839 135.145 252.756 135.206 252.696C135.267 252.635 135.349 252.601 135.434 252.601H143.6C143.642 252.601 143.684 252.593 143.724 252.577C143.763 252.56 143.798 252.537 143.828 252.507C143.858 252.477 143.882 252.441 143.898 252.402C143.915 252.363 143.923 252.321 143.923 252.278V244.119C143.923 244.076 143.915 244.034 143.898 243.995C143.882 243.956 143.858 243.92 143.828 243.89C143.798 243.86 143.763 243.836 143.724 243.82C143.684 243.804 143.642 243.795 143.6 243.795L135.434 243.79C135.392 243.79 135.35 243.781 135.311 243.765C135.272 243.749 135.236 243.725 135.206 243.695C135.176 243.665 135.152 243.629 135.136 243.59C135.12 243.551 135.111 243.509 135.111 243.466V216.503C135.111 216.417 135.145 216.335 135.206 216.274C135.267 216.214 135.349 216.18 135.434 216.18H144.181C144.267 216.18 144.349 216.214 144.41 216.274C144.471 216.335 144.505 216.417 144.505 216.503L144.516 242.879C144.516 242.965 144.55 243.047 144.611 243.107C144.672 243.168 144.754 243.202 144.839 243.202H152.999C153.085 243.202 153.167 243.236 153.227 243.297C153.288 243.357 153.322 243.44 153.322 243.525V252.278C153.322 252.321 153.33 252.363 153.347 252.402C153.363 252.441 153.387 252.477 153.417 252.507C153.447 252.537 153.482 252.56 153.522 252.577C153.561 252.593 153.603 252.601 153.645 252.601H161.811C161.896 252.601 161.979 252.567 162.039 252.507C162.1 252.446 162.134 252.364 162.134 252.278Z" fill="#3F8D9A"/>
<path d="M108.671 243.972L108.677 261.818C108.677 261.867 108.658 261.913 108.624 261.947C108.59 261.981 108.543 262 108.495 262H90.061C90.0127 262 89.9664 261.981 89.9323 261.947C89.8981 261.913 89.8789 261.867 89.8789 261.818V252.783C89.8789 252.735 89.8981 252.689 89.9323 252.655C89.9664 252.621 90.0127 252.601 90.061 252.601H98.5143C98.5626 252.601 98.609 252.582 98.6431 252.548C98.6773 252.514 98.6964 252.468 98.6964 252.419V243.972C98.6964 243.924 98.6773 243.877 98.6431 243.843C98.609 243.809 98.5626 243.79 98.5143 243.79H90.061C90.0127 243.79 89.9664 243.771 89.9323 243.736C89.8981 243.702 89.8789 243.656 89.8789 243.608L89.873 234.573C89.873 234.524 89.8922 234.478 89.9264 234.444C89.9605 234.41 90.0069 234.391 90.0552 234.391H117.307C117.355 234.391 117.401 234.41 117.435 234.444C117.47 234.478 117.489 234.524 117.489 234.573V243.614C117.489 243.662 117.47 243.708 117.435 243.742C117.401 243.776 117.355 243.796 117.307 243.796L108.853 243.79C108.805 243.79 108.759 243.809 108.725 243.843C108.69 243.877 108.671 243.924 108.671 243.972Z" fill="#3F8D9A"/>
<path d="M81.3138 243.202H72.0087C71.8205 243.202 71.668 243.355 71.668 243.543V261.66C71.668 261.848 71.8205 262 72.0087 262H81.3138C81.502 262 81.6545 261.848 81.6545 261.66V243.543C81.6545 243.355 81.502 243.202 81.3138 243.202Z" fill="#3F8D9A"/>
</g>
<defs>
<clipPath id="clip0_649_4037">
<rect width="262" height="262" fill="white"/>
</clipPath>
</defs>
</svg>