<svg width="110" height="110" viewBox="0 0 110 110" fill="none" xmlns="http://www.w3.org/2000/svg">
<g clip-path="url(#clip0_233_4318)">
<path d="M34.9297 100.14L70.7547 79.5002L83.3499 86.6977V89.3195L47.4998 110L34.9297 102.776V100.14Z" fill="#5F5F6D"/>
<path d="M14.9477 30.6428L67.3784 0.356109C68.2651 -0.156078 69.263 -0.0845353 70.0341 0.371578L70.0349 0.371148L75.8662 3.75773L75.866 3.75816C76.8193 4.12984 77.5493 5.04164 77.5493 6.20931V58.1764C77.5493 60.4253 76.3168 62.5602 74.369 63.6845L58.6005 72.5395L65.1404 76.2778V78.8995L33.9614 96.8964L25.3687 91.9586L21.9394 93.9373C21.1941 94.3683 20.2649 94.4025 19.4893 94.0306L13.1011 90.3707V90.37C12.3255 89.9292 11.7695 89.1029 11.7695 88.0835V36.1499C11.7694 35.0338 12.0631 33.9374 12.6209 32.9707C13.1788 32.004 13.9813 31.2012 14.9477 30.6428Z" fill="#9F9EAD"/>
<path d="M65.1399 76.2778V78.8996L33.9609 96.8964V94.2938L65.1399 76.2778Z" fill="#D1D1D1"/>
<path d="M21.3906 89.6732V87.0364L33.9607 94.2938V96.8964L21.3906 89.6732Z" fill="#5F5F6D"/>
<path d="M83.3499 86.6975L70.7547 79.5005L34.9297 100.14L47.4998 107.397L83.3499 86.6975Z" fill="#D1D1D1"/>
<path d="M83.3462 86.6975V89.3195L47.4961 110V107.397L83.3462 86.6975Z" fill="#9F9EAD"/>
<path d="M74.3693 63.6844L21.9399 93.9374C20.3146 94.8756 18.3159 93.856 18.0312 92.0898V81.9195L77.5498 47.4697V58.1762C77.5498 59.2927 77.2558 60.3895 76.6975 61.3564C76.1392 62.3233 75.3362 63.1262 74.3693 63.6844Z" fill="#D1D1D1"/>
<path d="M73.6011 3.9312L21.1706 34.2182C20.2042 34.7765 19.4017 35.5793 18.8438 36.5459C18.2859 37.5125 17.9922 38.6089 17.9922 39.725L18.0298 81.9197L77.5482 47.4699V6.2094C77.5482 4.18364 75.355 2.91799 73.6011 3.9312Z" fill="#5F5F6D"/>
<path d="M74.727 7.64697L21.5742 38.3396V76.441L74.727 45.421V7.64697Z" fill="#00BAFF"/>
<path d="M46.5156 73.2314C46.5156 74.9688 47.572 75.7676 48.8753 75.0152C50.1785 74.2628 51.2349 72.2444 51.2349 70.5069C51.2349 68.7695 50.1785 67.9707 48.8753 68.7231C47.572 69.4755 46.5156 71.4939 46.5156 73.2314Z" fill="#9F9EAD"/>
<path d="M73.6913 87.3126L72.1952 86.4488L69.2419 88.1538L70.7383 89.0176L73.6913 87.3126ZM69.4488 89.7619L67.9527 88.8982L65.3638 90.3929L66.86 91.2567L69.4488 89.7619ZM65.5707 92.0012L64.0745 91.1373L60.8456 93.0015L62.3302 93.872L65.5707 92.0012ZM66.1626 86.3757L67.9527 87.4095L70.9059 85.7043L69.1158 84.6709L66.1626 86.3757ZM61.0461 94.6135L59.5615 93.7425L56.4005 95.5678L57.8967 96.4317L61.0461 94.6135ZM70.4051 83.9265L72.1952 84.9601L75.0969 83.2848L73.2941 82.2587L70.4051 83.9265ZM66.6634 88.1538L64.8733 87.1204L62.2842 88.615L64.0745 89.6484L66.6634 88.1538ZM56.6074 97.1759L55.1112 96.3122L51.8422 98.1996L53.3383 99.0633L56.6074 97.1759ZM53.822 95.5678L52.0321 94.5342L48.7628 96.4216L50.5529 97.455L53.822 95.5678ZM64.8733 85.6315L67.8265 83.9265L66.5416 83.1846L63.5888 84.8901L64.8733 85.6315ZM43.8285 99.2706L45.6186 100.304L49.2636 98.1996L47.4735 97.166L43.8285 99.2706ZM57.7905 91.2095L59.5664 92.2513L62.7852 90.3929L60.9952 89.3595L57.7905 91.2095ZM53.3212 93.7898L55.1112 94.8232L58.2823 92.9927L56.5064 91.9509L53.3212 93.7898ZM60.9952 87.8704L63.584 86.3757L62.2997 85.6345L59.711 87.1294L60.9952 87.8704ZM77.9019 84.8817L76.361 84.0045L76.378 84.0339L73.4845 85.7043L74.9806 86.5682L77.9019 84.8817ZM55.2515 101.656L53.3383 100.552L49.6931 102.657L51.6112 103.764L55.2515 101.656ZM74.9806 88.0571L72.0274 89.7619L73.9156 90.852L76.8648 89.1446L74.9806 88.0571ZM70.7383 90.5063L54.6276 99.8077L56.5391 100.911L72.6281 91.5975L70.7383 90.5063ZM79.2002 85.6207L76.2699 87.3126L78.1524 88.3995L81.0921 86.6975L79.2002 85.6207ZM48.404 103.401L45.6248 105.005L47.5498 106.115L50.3237 104.509L48.404 103.401ZM41.2499 99.2706L39.9693 98.5311L37.1836 100.14L38.4651 100.879L41.2499 99.2706ZM69.1158 83.1823L71.9956 81.5194L70.7009 80.7825L67.8304 82.44L69.1158 83.1823ZM41.5469 102.655L44.3293 101.048L42.5392 100.015L39.7555 101.622L41.5469 102.655ZM52.0491 99.8077L50.5529 98.9439L46.9076 101.048L48.404 101.912L52.0491 99.8077ZM47.4735 95.6774L50.7428 93.7898L49.4604 93.0496L46.1918 94.9372L47.4735 95.6774ZM52.0321 93.0455L55.2275 91.2005L53.9543 90.4541L50.7495 92.305L52.0321 93.0455ZM42.5392 98.5262L46.1845 96.4216L44.9027 95.6817L41.2583 97.7867L42.5392 98.5262ZM56.5114 90.4592L59.7059 88.615L58.422 87.8738L55.2382 89.7127L56.5114 90.4592ZM47.1147 102.657L45.6186 101.793L42.837 103.398L44.3345 104.261L47.1147 102.657Z" fill="#E3E3E3"/>
<path d="M91.6626 80.92C91.0696 79.3107 89.0086 77.1648 84.5192 76.0637C80.0299 74.9626 77.5508 75.6699 77.5508 75.6699L90.1954 83.0189C90.3484 83.109 90.523 83.1559 90.7005 83.1544L90.7209 83.166L91.6626 82.9527C91.6626 82.9529 92.2556 82.5294 91.6626 80.92Z" fill="#5F5F6D"/>
<path d="M90.7001 83.1545L90.7205 83.1661L92.8975 83.0107C94.5999 82.7609 96.188 82.1722 97.1997 80.7203C97.6178 80.1202 98.1388 78.7551 98.1388 78.7551C98.2366 78.5368 98.2658 78.2827 98.1672 78.0167C97.617 76.5343 96.5666 75.2905 95.1972 74.4999C92.2123 72.7766 88.8264 71.8693 85.3797 71.8694H84.0958C83.3591 71.9388 81.5194 72.165 79.9899 73.0375L78.6284 73.8144C78.3011 74.0011 78.029 74.2711 77.8397 74.597C77.6504 74.9229 77.5508 75.2931 77.5508 75.67V75.6702H78.8347C82.2813 75.6701 85.6673 76.5774 88.6522 78.3007C90.0216 79.0913 91.072 80.3351 91.6222 81.8175C91.8785 82.5082 91.3362 83.15 90.7001 83.1545Z" fill="#D1D1D1"/>
<path d="M86.2569 73.6517C86.1955 73.6517 86.1332 73.6427 86.0715 73.6244C83.0362 72.7139 79.7467 73.2349 79.7141 73.2401C79.6876 73.2442 79.6629 73.236 79.6367 73.2369L79.9869 73.0371C81.3941 72.2342 83.0534 71.9805 83.885 71.8909C84.7066 71.9772 85.578 72.1304 86.4417 72.3895C86.5901 72.4338 86.7176 72.53 86.8009 72.6605C86.8842 72.7911 86.9177 72.9473 86.8953 73.1005C86.8729 73.2538 86.796 73.3938 86.6788 73.4951C86.5616 73.5963 86.4118 73.6519 86.2569 73.6517Z" fill="#9F9EAD"/>
<g opacity="0.5">
<path opacity="0.2" d="M67.1593 12.0171L74.727 17.7382V45.4212L63.5405 51.9497L35.1601 30.4945L67.1593 12.0171ZM21.5742 65.6866V38.3397L23.2169 37.391L51.6521 58.8876L29.6025 71.7559L21.5742 65.6866Z" fill="white"/>
</g>
</g>
<defs>
<clipPath id="clip0_233_4318">
<rect width="110" height="110" fill="white"/>
</clipPath>
</defs>
</svg>
