<svg width="110" height="110" viewBox="0 0 110 110" fill="none" xmlns="http://www.w3.org/2000/svg">
<path d="M51.8328 49.2025C42.7397 40.4442 30.5927 36.8935 24.7021 41.2709C23.3726 42.2586 22.4797 43.5678 21.9921 45.1003L21.9897 45.0986L0 110L57.3104 73.4008L57.177 73.2943C57.3323 73.1962 57.4842 73.0929 57.6325 72.9847C63.5233 68.6072 60.9267 57.9598 51.8328 49.2025Z" fill="#FFD800"/>
<path d="M24.7019 41.2708C30.5925 36.8933 42.7395 40.4449 51.8334 49.2024C60.9265 57.9596 63.5231 68.6071 57.6325 72.9845C51.7419 77.362 39.5957 73.8112 30.5018 65.0538C21.4079 56.2963 18.8113 45.6482 24.7019 41.2706V41.2708Z" fill="#FBF0A4"/>
<path d="M28.5407 44.9677C33.0582 41.6108 42.373 44.3339 49.347 51.0504C56.3202 57.7659 58.3116 65.9317 53.7949 69.2884C49.2772 72.6447 39.9618 69.9222 32.9886 63.2058C26.0145 56.4904 24.0231 48.3246 28.5407 44.9677Z" fill="#F39C12"/>
<path d="M14.686 66.656L12.0467 74.4458C15.4792 76.784 19.0744 78.7837 22.7998 80.4178C27.7655 82.5972 32.9679 84.1372 38.2619 84.9966C38.5005 85.0356 38.7394 85.0729 38.9786 85.1083L50.3855 77.8236C44.8926 78.1609 29.9099 77.8397 14.686 66.656ZM7.36631 88.2596L4.80859 95.8101C5.78347 96.2986 6.77041 96.7625 7.7685 97.2016C10.3112 98.3167 12.923 99.2669 15.5877 100.047L24.9511 94.0662C19.9357 93.2941 13.8217 91.6357 7.36631 88.2596ZM44.6986 30.6824H56.0729V36.4662H44.6988L44.6986 30.6824ZM81.0511 11.641L89.0942 3.59766L93.1839 7.68828L85.1415 15.7305L81.0511 11.641Z" fill="#E74C3C"/>
<path d="M22.5898 26.5945L30.6323 18.5522L34.7219 22.6418L26.6796 30.6849L22.5898 26.5945ZM86.9323 44.5868L94.9748 52.6293L90.885 56.7188L82.8428 48.6763L86.9323 44.5868Z" fill="#FFD800"/>
<path d="M45.2584 0L53.3008 8.04246L49.2113 12.1329L41.168 4.08955L45.2584 0ZM70.4003 60.5894L78.4425 68.6316L74.353 72.7212L66.3098 64.6789L70.4003 60.5894ZM81.4318 26.5667H92.8061V32.3507H81.4318V26.5667Z" fill="#3498DB"/>
<path d="M63.415 3.97656H69.1998V15.3515H63.415V3.97656ZM44.3398 45.3825H50.1241V56.7568H44.3398V45.3825ZM63.415 44.1607L71.4572 36.1174L75.547 40.208L67.5045 48.2503L63.415 44.1607Z" fill="#2ECC71"/>
</svg>
