<svg width="110" height="110" viewBox="0 0 110 110" fill="none" xmlns="http://www.w3.org/2000/svg">
<g clip-path="url(#clip0_618_364)">
<path d="M72.0547 88.4485L41.7422 92.6291L48.4049 110L72.0547 96.3459V88.4485Z" fill="#0055A3"/>
<path d="M24.7539 88.4485L39.8228 90.494L48.4035 102.102V110L24.7539 96.3459V88.4485Z" fill="#0573CE"/>
<path d="M41.8106 11.0112L32.0481 25.2661L18.7461 5.29162L25.3403 1.48438L41.8106 11.0112Z" fill="#FFE177"/>
<path d="M24.7539 88.4484L48.4035 102.102L72.0533 88.4484L48.4035 76.563L24.7539 88.4484Z" fill="#82AEE3"/>
<path d="M59.1823 82.5706L37.6367 82.6127V88.5535H37.6451C37.6451 90.1073 38.6323 91.6612 40.6359 92.8672C44.7549 95.3462 51.5745 95.4152 55.8677 93.0212C58.0727 91.7917 59.1739 90.1518 59.1739 88.5114H59.1823V82.5706Z" fill="#FFD15B"/>
<path d="M48.1753 88.9691C54.125 88.9691 58.9482 86.1754 58.9482 82.7292C58.9482 79.283 54.125 76.4893 48.1753 76.4893C42.2255 76.4893 37.4023 79.283 37.4023 82.7292C37.4023 86.1754 42.2255 88.9691 48.1753 88.9691Z" fill="#FFE177"/>
<path d="M53.8049 67.2532L43.0195 67.2742V81.3126H43.0238C43.0238 82.0903 43.518 82.8682 44.5209 83.4717C46.5827 84.7127 49.9964 84.7473 52.1457 83.5489C53.2493 82.9333 53.8008 82.1124 53.8008 81.2913H53.8051V67.2532H53.8049ZM81.2692 64.0131L87.8604 60.2076L87.8619 60.2067L87.8634 60.2059C89.8415 59.0638 91.2545 56.9428 91.2545 54.3323V39.4399L80.0094 43.0564L81.2692 64.0131Z" fill="#FEB237"/>
<path d="M35.2164 41.3582V14.8188L18.7461 5.29175V21.5838C18.7461 24.6999 19.5657 27.7612 21.1227 30.4605C22.6797 33.1597 24.9192 35.402 27.6166 36.9623L35.2164 41.3582Z" fill="#FFC344"/>
<path d="M74.7822 48.5401C74.7822 63.1081 62.9727 74.9176 48.4048 74.9176C33.8369 74.9176 22.0273 63.1081 22.0273 48.5401L22.045 14.6941H74.7642L74.7822 48.5401Z" fill="#FFD15B"/>
<path d="M83.0697 53.8378L77.5199 62.378L68.1875 52.8512L74.7819 49.0439L83.0697 53.8378Z" fill="#FFE177"/>
<path d="M77.1965 58.0551L68.1877 52.8509V60.3707L74.4796 64.0101C79.0012 66.6257 84.6579 63.3626 84.6579 58.1391V43.2468L79.7199 36.5798L68.1875 33.72V41.3284L78.1423 47.0051V57.5092C78.1425 57.9947 77.617 58.2981 77.1965 58.0551Z" fill="#FFC344"/>
<path d="M91.2525 39.4396L84.6581 43.2469L68.1877 33.7201L74.7821 29.9128L91.2525 39.4396ZM29.7305 26.0108C19.4596 20.0811 19.4596 10.3777 29.7305 4.44759C40.0013 -1.48253 56.8081 -1.48253 67.0789 4.44759C77.3497 10.3777 77.3497 20.0811 67.0789 26.0108C56.8081 31.9405 40.0013 31.9405 29.7305 26.0108Z" fill="#FFF0AD"/>
<path d="M34.3985 23.3153C26.6953 18.8681 26.6953 11.5905 34.3985 7.14298C42.1017 2.6955 54.7068 2.6955 62.4098 7.14298C70.1128 11.5905 70.1131 18.8681 62.4098 23.3153C54.7066 27.7626 42.1017 27.7626 34.3985 23.3153Z" fill="#FEB237"/>
</g>
<defs>
<clipPath id="clip0_618_364">
<rect width="110" height="110" fill="white"/>
</clipPath>
</defs>
</svg>
