<svg width="110" height="110" viewBox="0 0 110 110" fill="none" xmlns="http://www.w3.org/2000/svg">
<path d="M54.9995 0.572998C91.3555 0.572998 106.453 48.6594 76.3951 69.2376V92.5601C76.3951 97.5284 71.9506 100.835 67.9169 102.645C66.6283 112.452 43.3706 112.452 42.082 102.645C38.0434 100.833 33.6039 97.3835 33.6039 92.5603V69.2376C3.64652 48.728 18.5167 0.572998 54.9995 0.572998Z" fill="#518282"/>
<path d="M76.3968 71.9402V92.5598C76.3968 99.5472 66.8175 105.212 55.0011 105.212C43.1847 105.212 33.6055 99.5474 33.6055 92.5598V71.9402H76.3968Z" fill="#518282"/>
<path d="M55.0011 98.3353C66.8175 98.3353 76.3968 92.6709 76.3968 85.6833V92.5601C76.3968 99.5474 66.8175 105.212 55.0011 105.212C43.1847 105.212 33.6055 99.5476 33.6055 92.5601V85.6833C33.6055 92.6707 43.1847 98.3353 55.0011 98.3353Z" fill="#749B9B"/>
<path d="M55.0011 84.5921C66.8175 84.5921 76.3968 78.9278 76.3968 71.9402V78.8169C76.3968 85.8043 66.8175 91.4688 55.0011 91.4688C43.1847 91.4688 33.6055 85.8045 33.6055 78.8169V71.9402C33.6055 78.9275 43.1847 84.5921 55.0011 84.5921Z" fill="#749B9B"/>
<path d="M17.0742 37.9253C17.0742 16.9797 34.054 0 54.9995 0C75.9451 0 92.9248 16.9797 92.9248 37.9253C92.9248 50.9321 86.3742 62.4057 76.3952 69.2375V71.9402C76.3952 78.9276 66.8159 84.5921 54.9995 84.5921C43.1831 84.5921 33.6039 78.9278 33.6039 71.9402V69.2375C23.6248 62.4057 17.0742 50.9321 17.0742 37.9253Z" fill="#FFCA00"/>
<path opacity="0.3" d="M54.9979 84.5922C66.8147 84.5922 76.3941 78.9277 76.3941 71.9403C76.3941 64.9528 66.8147 59.2883 54.9979 59.2883C43.181 59.2883 33.6016 64.9528 33.6016 71.9403C33.6016 78.9277 43.181 84.5922 54.9979 84.5922Z" fill="white"/>
<path d="M40.6622 51.1529C42.9563 50.3971 45.3568 49.5206 47.4803 48.0787C48.6486 47.7047 49.3447 48.1206 49.5688 49.3268V51.8323L49.6018 51.8138C50.0272 51.5756 50.3815 51.2283 50.6281 50.8077C50.8748 50.3871 51.0049 49.9084 51.0052 49.4209V44.5246C51.0052 42.539 52.0734 40.6885 53.793 39.6958L53.9683 39.5946C56.2289 38.8115 57.5852 39.5946 58.0373 41.9439V47.0153L58.0729 46.9959C58.5063 46.7605 58.8681 46.4125 59.1202 45.9885C59.3722 45.5646 59.5052 45.0805 59.5051 44.5873V39.6702C59.5051 35.8887 66.289 31.8501 66.289 37.2343V37.3709L69.4889 35.5763L69.5761 35.2188C70.1792 32.7438 74.0081 33.6769 73.4046 36.1519L65.786 67.4145C65.1007 70.2291 61.4116 68.7205 61.9575 66.4814L68.5717 39.3406L65.5652 41.0267C64.3893 41.4212 63.6859 41.0091 63.455 39.7907V37.4627C61.8213 38.6613 62.0415 42.9197 62.3393 44.5875C62.3397 45.5905 62.0694 46.575 61.5569 47.4372C61.0444 48.2993 60.3086 49.0072 59.4273 49.486L59.212 49.6031C56.9721 50.3288 55.6357 49.5345 55.2035 47.2198V42.1544C54.7891 42.3962 54.4452 42.7422 54.206 43.158C53.9667 43.5739 53.8404 44.0451 53.8396 44.5248V49.4211C53.8396 51.438 52.7461 53.3029 50.9854 54.2875C49.2815 55.0801 46.735 54.7615 46.735 52.0394V51.6982L43.4915 53.4432L50.5061 74.7381C51.239 76.9626 47.6534 78.6744 46.7635 75.971L39.4077 53.6406C39.3267 53.3949 39.2948 53.1356 39.314 52.8776C39.3332 52.6196 39.403 52.3679 39.5195 52.1369C39.636 51.9058 39.7969 51.7 39.993 51.5312C40.189 51.3624 40.4164 51.2338 40.6622 51.1529C41.0493 51.0253 39.6286 51.4933 40.6622 51.1529Z" fill="#CAA414"/>
<path opacity="0.3" d="M66.5305 42.2963C75.6859 42.2963 83.1078 34.8744 83.1078 25.7189C83.1078 16.5635 75.6859 9.1416 66.5305 9.1416C57.3751 9.1416 49.9531 16.5635 49.9531 25.7189C49.9531 34.8744 57.3751 42.2963 66.5305 42.2963Z" fill="white"/>
</svg>
