<svg width="110" height="111" viewBox="0 0 110 111" fill="none" xmlns="http://www.w3.org/2000/svg">
<g clip-path="url(#clip0_618_1436)">
<path d="M103.124 74.7764V82.7151L54.9991 110.5L47.3945 92.0105L103.124 74.7764Z" fill="#008B81"/>
<path d="M6.875 74.7764V82.7151L55 110.5V102.561L34.375 81.8928L6.875 74.7764Z" fill="#0AB69F"/>
<path d="M20.6265 82.715L41.2515 94.6227H68.7515L89.3765 82.715L85.3718 64.5257L55.0015 46.9912L18.5664 68.0272L19.6864 76.0117L20.6265 82.715Z" fill="#5DE1C4"/>
<path d="M37.7809 76.7429L34.375 74.7764L30.9375 72.6998L34.375 68.616V51.5308L44.0144 53.87L55 63.4385L37.7809 76.7429Z" fill="#B3DAFE"/>
<path d="M55 86.6844L75.625 74.7764L79.0625 72.6998L75.625 68.616V51.5308L55 63.4385V86.6844Z" fill="#60B7FF"/>
<path d="M34.3746 68.6162L16.457 73.7166L20.6246 82.7153L34.3746 74.7766V68.6162ZM68.7496 88.4626L50.1454 90.8641L54.9996 102.562L68.7496 94.623V88.4626ZM103.125 68.6162L85.3649 72.7L89.3746 82.7153L103.125 74.7766V68.6162Z" fill="#FEB237"/>
<path d="M6.875 68.6162H15.664L20.625 76.5547V82.7153L6.875 74.7766V68.6162ZM41.25 88.4626L50.1458 88.2254L55 96.4013V102.562L41.25 94.623V88.4626ZM75.625 68.6162L84.414 69.7205L89.375 76.5547V82.7153L75.625 74.7766V68.6162Z" fill="#FFD15B"/>
<path d="M37.7812 76.7429V60.0708L48.1253 66.043V82.7149L37.7812 76.7429Z" fill="#0AB69F"/>
<path d="M6.875 68.6159L20.625 76.5544L34.375 68.6159L20.625 60.6772L6.875 68.6159Z" fill="#FFF0AD"/>
<path d="M27.5 36.8037L13.75 36.8306V66.9676H13.7554C13.7554 67.9591 14.3853 68.9508 15.664 69.7203C18.2927 71.3025 22.6447 71.3465 25.3846 69.8187C26.7919 69.0341 27.4946 67.9876 27.4946 66.9407H27.5V36.8037Z" fill="#D8ECFE"/>
<path d="M41.25 88.4624L55 96.4011L68.75 88.4624L55 80.5239L41.25 88.4624Z" fill="#FFF0AD"/>
<path d="M61.875 56.6499L48.125 56.6768V86.8138H48.1304C48.1304 87.8053 48.7603 88.797 50.039 89.5665C52.6677 91.1487 57.0197 91.1927 59.7596 89.6649C61.1669 88.8803 61.8696 87.8338 61.8696 86.7869H61.875V56.6499Z" fill="#D8ECFE"/>
<path d="M75.625 68.6159L89.375 76.5544L103.125 68.6159L89.375 60.6772L75.625 68.6159Z" fill="#FFF0AD"/>
<path d="M96.25 36.8037L82.5 36.8306V66.9676H82.5054C82.5054 67.9591 83.1353 68.9508 84.414 69.7203C87.0427 71.3025 91.3947 71.3465 94.1346 69.8187C95.5419 69.0341 96.2446 67.9876 96.2446 66.9407H96.25V36.8037Z" fill="#B3DAFE"/>
<path d="M44.0156 80.3415L45.3302 81.1006V64.4285L44.0156 63.6694V80.3415Z" fill="#01998D"/>
<path d="M103.124 30.2505V35.6538L54.9993 63.4387L45.9688 50.098L103.124 30.2505Z" fill="#FEB237"/>
<path d="M6.875 30.2505V35.6538L55 63.4387V58.0354L32.4792 39.9096L6.875 30.2505Z" fill="#FFD15B"/>
<path d="M6.875 30.2504L55 58.0353L103.125 30.2504L55 2.46533L6.875 30.2504Z" fill="#FFF0AD"/>
<path d="M72.1562 0.5L37.7812 20.3464L39.4272 36.0128L55.0003 50.0978L89.3753 30.2514L72.1562 0.5Z" fill="#5DE1C4"/>
<path d="M55.0007 50.0975L47.3961 45.707L36.1746 32.5974L24.9528 32.7493L20.5625 30.2146L37.7816 20.3462L55.0007 50.0975Z" fill="#0AB69F"/>
<path d="M24.9531 32.7495L36.1748 26.3184L47.3963 45.7071L24.9531 32.7495Z" fill="#008B81"/>
</g>
<defs>
<clipPath id="clip0_618_1436">
<rect width="110" height="110" fill="white" transform="translate(0 0.5)"/>
</clipPath>
</defs>
</svg>
